<svg xmlns="http://www.w3.org/2000/svg" width="616" height="1357" fill="none">
  <path fill="#fff" fill-opacity=".04" d="M450.087 22.087c-131.435 93.481-142.984 102.562-149.583 120.19-9.349 25.641-22.547 27.778-46.195 8.013-14.848-12.82-24.197-16.56-42.345-16.56-29.147 0-62.693 20.833-68.192 41.666-1.65 8.013-11.549 26.175-21.998 40.598-14.298 20.299-18.148 30.982-18.148 51.281 0 30.448 10.449 56.623 29.697 74.251 18.698 17.094 62.143 19.23 79.741 3.739 13.748-11.752 13.748-9.081 6.049 33.654-2.75 16.559-6.599 41.131-8.799 55.02l-2.75 25.641h-26.947c-50.044 0-87.99 36.324-87.99 84.934 0 27.777 14.849 65.17 37.396 94.55l12.649 17.093-20.898 3.74c-25.297 4.273-65.993 26.174-83.04 44.871-54.445 59.293-51.145 170.937 7.698 253.735 4.95 6.944 6.05 18.162 3.85 33.119-3.3 24.038 4.4 60.358 19.798 92.948 10.999 24.04 14.298 28.31 48.394 61.96 42.896 42.74 84.691 49.68 119.887 20.84 12.649-11.22 15.948-18.7 18.148-42.74 2.75-32.58-3.85-45.4-23.647-45.4-6.6 0-18.698 5.87-25.848 13.35-8.799 8.01-17.598 12.29-22.547 10.15-9.349-3.2-29.697-48.08-24.747-53.42 1.65-1.6 19.798 1.07 39.595 5.88 20.348 4.27 47.845 8.01 61.593 8.01h24.748l-9.899 17.1c-14.849 26.7-13.749 106.3 2.2 135.14 26.947 49.15 60.493 72.12 106.138 72.12 30.796 0 60.493-12.29 75.891-30.99 10.449-12.82 7.699-38.99-4.949-52.35-13.749-14.42-12.099-29.91 1.65-16.02 11.548 11.22 15.398 10.68 15.398-1.6 0-12.82-14.848-30.45-34.646-40.07l-15.399-7.47 17.598-8.55c9.899-4.81 18.698-8.55 19.248-8.55 2.75 0 28.047 39 41.246 64.1l11.548 20.84-11.548 29.91c-13.749 35.79-14.299 41.13-2.75 69.44 9.349 25.11 44.545 50.75 68.742 50.75 18.698 0 43.446-24.04 43.446-42.2 0-7.48-4.4-21.37-9.899-29.91-9.349-16.03-9.349-16.03 4.949-29.38l14.298-13.89 13.749 14.42c13.198 14.42 13.198 14.96 3.3 27.24-32.997 42.2 21.447 88.68 68.742 58.23 32.996-20.83 44.545-59.83 29.147-102.03-12.649-35.79-10.999-45.4 15.398-85.47 24.747-36.32 24.747-36.86 40.145-29.91 8.249 3.74 21.448 9.61 29.147 12.82 12.649 5.34 11.549 5.87-10.999 5.87-27.497.54-51.694 16.03-57.743 36.33-3.3 11.22-1.65 12.28 16.498 12.28 19.248 0 19.798 0 11.549 11.76-10.999 14.95-10.999 35.79-.55 50.21 17.048 24.57 69.842 36.32 103.938 23.5 22.548-8.01 54.994-40.06 69.292-67.84 18.698-35.79 21.998-92.94 6.6-123.39l-10.999-22.44h23.647c21.448 0 82.491-11.22 103.941-19.23 6.05-2.14 7.15 0 4.95 9.62-10.45 45.94-34.65 64.1-52.8 39.53-13.2-18.17-33.543-18.17-45.642-.54-7.699 11.75-8.249 16.56-2.2 37.93 14.299 49.14 62.692 64.63 110.542 34.72 58.29-35.79 105.03-122.33 95.69-177.348-2.75-16.559-.55-25.64 12.09-48.61 24.2-42.2 34.65-79.593 34.65-120.724 0-63.033-23.65-108.439-72.59-138.353-15.95-9.615-33-17.627-37.95-17.627-16.5 0-17.05-9.616-2.2-28.312 19.25-24.572 27.5-70.512 19.25-107.904-9.35-44.871-47.29-72.114-98.99-72.114-15.4 0-15.4-.534-21.45-47.008-3.85-25.641-8.8-56.623-11.54-68.909-9.354-37.927-6.604-69.977 5.49-81.729 11.55-11.218 27.5-14.423 27.5-5.342 0 3.205-6.05 14.957-13.75 26.709-16.5 25.106-18.14 53.418-3.85 65.704 13.75 12.286 60.5 11.752 76.44-.534 35.75-27.778 45.1-81.196 21.45-120.725-31.89-52.349-80.29-69.443-131.433-45.939-43.445 19.764-69.292 52.349-80.291 98.823-3.299 14.423-8.249 36.324-10.999 48.076l-4.949 21.367-.55-21.901c-.55-31.517-30.796-84.935-67.642-119.656-32.997-32.051-81.391-58.226-131.986-71.58-42.895-11.752-139.134-11.218-176.53.534-58.843 18.696-123.736 70.512-147.383 118.053l-11.549 22.436-15.948-16.56-15.949-16.559 14.299-25.107c14.848-27.777 30.796-45.405 54.444-61.964 21.447-15.491 78.091-53.418 108.888-73.717 25.297-16.56 36.846-35.79 16.498-27.777-5.5 2.136-21.448 8.012-36.296 13.354-14.299 4.808-27.497 10.684-29.697 12.286-10.999 11.218-11.549 1.069-.55-12.82 23.648-31.516 42.895-58.76 42.895-60.896 0-7.479-17.048 0-43.995 19.23m-86.34 115.917c-17.598 20.299-32.446 36.324-33.546 35.79-2.75-2.137 11.548-34.722 15.398-34.722 2.2 0 13.748-8.547 25.297-18.696 12.099-10.149 21.998-18.696 23.098-18.696s-12.649 16.559-30.247 36.324m291.467 20.299c86.891 25.64 161.682 87.605 178.73 147.967 7.15 24.038 2.75 44.337-21.447 97.221-4.4 9.615-7.149 38.995-7.699 73.716-.55 41.132-2.75 59.294-7.699 61.965-6.05 3.739-5.5 6.945 1.649 17.628 8.799 13.355 8.799 13.355-4.949 11.218-23.647-4.808-40.146 2.671-72.042 33.119-19.798 19.23-35.196 29.38-43.995 29.38-19.248 0-16.498 8.547 9.899 26.709 25.847 18.696 62.143 21.901 84.14 7.478 19.248-12.286 35.746-40.063 36.296-61.43.55-14.423 2.2-11.752 6.05 11.217 8.799 51.816 10.448 48.611-27.497 63.568-47.845 19.23-72.592 41.666-72.592 66.772 0 58.226 81.391 147.968 170.481 188.565 26.397 12.286 83.59 22.97 121.541 22.97 85.24 0 142.43-53.418 142.43-133.011 0-52.883-34.65-107.37-67.64-107.37-18.15 0-15.4-8.546 5.5-16.559 26.39-9.615 73.69 20.833 95.14 61.43 5.49 10.15 8.24 30.983 8.24 58.76 0 36.324-2.2 48.076-15.39 74.785-22.55 45.939-64.35 85.469-113.84 108.969-38.5 17.63-44.55 19.23-93.49 19.23-42.346 0-61.044-3.2-98.989-14.95-25.848-8.55-50.595-17.631-54.994-21.37-4.4-3.205-14.849-19.231-23.648-35.256-17.598-34.722-27.497-48.076-35.746-48.076-12.098 0-10.998 17.628 4.4 50.213 20.898 44.337 21.447 74.789 2.2 112.179-7.699 14.96-19.798 33.12-26.947 40.6-25.298 26.17-52.244 75.85-52.244 97.22 0 23.5-4.4 25.1-18.148 6.41-16.499-21.37-12.649-43.27 18.697-105.77l28.597-58.76-6.599-31.52c-3.85-17.625-15.398-48.073-25.847-67.838-23.098-44.337-35.196-81.195-35.196-109.506 0-33.654-4.95-45.406-19.248-45.406-18.148 0-21.998 8.013-31.896 58.76-8.25 46.474-26.398 91.879-50.595 126.066-10.999 15.491-13.748 26.714-13.748 51.284 0 27.24 3.849 38.99 27.497 85.47 29.696 58.22 34.096 82.26 17.048 97.22-9.349 8.01-10.449 8.01-13.749.53-1.65-4.81-3.299-12.29-3.299-16.56s-16.498-32.58-36.296-62.5c-63.793-94.55-69.842-123.39-40.696-181.084 14.849-29.38 15.948-33.654 8.799-41.132-7.699-6.944-9.899-5.876-20.897 7.478-14.299 17.094-31.897 49.679-31.897 58.226 0 6.41-12.098 12.286-68.742 32.582-31.897 11.75-48.945 14.43-96.239 14.96-56.094.53-58.844 0-99.539-18.7-63.793-30.445-103.389-75.316-125.386-142.622-7.7-24.038-7.7-63.567.55-86.537 14.298-40.598 55.543-74.785 91.289-75.854 24.198-.534 35.197 14.423 12.649 16.56-19.248 2.137-39.596 20.833-52.794 47.008-7.15 14.957-8.8 30.448-7.15 67.84 1.65 44.337 3.3 51.816 18.149 72.649 23.097 33.119 59.393 50.747 110.537 52.884 105.589 5.341 210.077-49.145 274.42-142.626 21.447-31.517 24.747-40.598 24.747-63.568 0-24.572-1.65-28.845-19.248-42.2-10.449-8.012-34.646-21.367-53.344-28.845-30.247-11.752-34.646-15.491-32.996-26.709 6.599-51.281 11.548-79.059 17.598-91.879 6.049-11.752 6.049-17.094 0-27.777s-6.05-17.628-.55-35.256c5.499-18.162 5.499-27.777-2.2-57.157-9.349-38.461-16.498-60.362-26.397-80.661-29.697-60.362 55.544-169.869 156.733-200.852 32.446-9.615 65.992-9.615 99.538.535M231.762 205.31c23.097 9.616 40.695 22.97 35.746 27.243-1.65 2.137-8.799-1.602-14.849-7.478-8.799-8.547-18.698-11.218-39.045-11.218-25.297 0-32.997-3.739-23.648-12.286 5.5-5.876 22.548-4.273 41.796 3.739m828.758 1.069c8.25 4.807 19.25 16.559 24.75 25.64l9.35 16.56-14.85-17.628c-13.75-16.025-17.05-17.094-48.4-17.094-42.893 0-54.991 8.013-67.09 43.269-8.249 24.038-8.799 31.516-2.2 70.511 4.4 24.038 7.699 79.593 7.699 123.93v80.127l-18.148 35.79c-10.449 19.23-31.346 47.542-46.744 62.499l-28.047 27.243-7.15-20.299c-3.849-10.684-8.249-51.281-9.349-90.276-2.199-65.704-2.199-70.512 8.8-80.127 18.147-15.491 40.695-69.443 53.344-127.135 17.048-79.592 20.897-89.742 40.145-107.904 35.746-33.119 68.74-41.666 97.89-25.106m-913.999 36.858c-3.299 7.479-7.149 12.286-8.249 11.218-2.75-2.671 8.249-24.572 12.099-24.572 1.65 0-.55 5.876-3.85 13.354m74.242 15.491c6.049 6.41 7.149 40.598 1.1 40.598-3.85 0-24.747-36.324-24.747-42.2 0-8.013 14.298-7.479 23.647 1.602m843.057 38.461c-6.05 15.491-14.3 6.944-14.3-15.491l.55-22.436 8.25 14.957c4.95 8.547 7.15 18.697 5.5 22.97m-877.703-11.752c0 19.231-7.149 29.38-13.749 19.231-4.949-7.479 2.2-37.393 8.799-37.393 2.75 0 4.95 8.013 4.95 18.162m114.937-1.068c2.75 9.615 7.149 29.38 8.799 44.337 7.699 56.623 44.545 141.557 64.343 147.967 4.399 1.603 3.849 8.013-1.1 22.436-3.85 11.218-5.499 27.243-3.3 35.256 2.75 15.491-5.499 106.835-10.998 111.643-4.4 4.273-46.195-37.927-59.944-60.896-25.297-41.666-31.896-70.512-31.346-138.887.55-35.256 3.299-76.922 6.599-92.947 2.75-15.491 5.499-40.064 5.499-53.952 0-36.324 11.549-44.337 21.448-14.957m37.396 45.405c-1.65 5.342-2.75 2.137-2.75-6.41 0-9.081 1.1-12.82 2.75-9.615 1.1 3.739 1.1 11.217 0 16.025m548.838 42.734c-1.649 11.218-6.049 22.436-9.348 25.641-4.4 3.739-4.95 1.068-2.2-8.013 2.2-7.478 5.499-18.696 7.149-25.64 4.949-19.765 8.799-13.355 4.399 8.012m-525.191 32.585c0 8.013-1.1 8.013-5.499 1.069-7.149-10.684-7.149-17.628 0-13.355 3.299 1.603 5.499 7.479 5.499 12.286m707.773 87.606c14.85 6.944 29.14 34.721 29.14 56.088-.55 47.008-54.99 100.426-113.283 110.575-11.548 2.137-27.496 5.342-35.196 6.945l-13.748 3.205 14.298-15.491c31.347-34.722 54.999-82.798 63.239-127.669 7.15-39.529 11.55-45.94 28.05-42.2 8.8 1.602 20.9 5.342 27.5 8.547m-859.006 18.696c7.699 59.828 37.946 122.861 73.142 154.912l13.748 12.286-18.698-3.205c-70.392-12.82-142.434-81.73-142.434-136.75 0-25.641 28.597-51.281 58.844-51.815 10.449-.535 12.648 3.205 15.398 24.572m20.898 204.59c2.199 2.137-5.5 9.616-17.048 17.628l-21.998 13.889 6.049-21.367c4.4-18.162 7.15-20.833 17.048-17.628 6.05 1.602 13.749 5.342 15.949 7.478m806.758 27.244c7.15 12.286 6.6 12.82-3.85 3.205-6.05-4.808-13.2-9.081-15.95-9.081s-10.99-4.808-18.69-10.15l-13.203-10.149 18.703-4.808c17.04-4.273 19.79-3.739 22.54 6.41 1.65 6.41 6.6 17.094 10.45 24.573m-154.531-13.355c50.594 14.423 54.994 16.025 96.239 34.722 29.692 12.82 99.542 65.169 117.682 87.071 13.75 17.094 11 27.243-12.09 47.008-22.55 19.764-28.6 18.696-40.15-5.342-31.35-64.102-103.388-88.674-168.28-56.623-15.949 7.478-30.247 16.025-31.897 19.23-4.399 6.945-41.795-29.38-66.542-64.101-24.748-34.722-23.098-48.076 6.599-63.033 31.346-16.026 41.245-16.026 98.439 1.068m-426.203 4.808c7.7 5.341 14.299 13.354 14.299 18.696 0 11.218-23.098 45.405-54.444 79.593l-23.647 25.64-27.497-17.628c-25.298-16.559-30.797-18.162-68.743-18.162-32.446 0-46.195 2.671-62.693 11.752-21.997 12.286-46.195 41.666-52.244 65.17-4.949 19.23-18.698 17.628-42.895-5.876l-20.348-20.299 32.447-29.38c43.995-40.063 52.244-45.939 82.49-61.43 32.447-16.56 93.49-40.064 105.039-40.598 4.949 0 22.547-4.807 39.045-10.149 33.547-11.752 58.294-10.684 79.191 2.671m-294.767 18.696c6.05 10.149 4.4 14.423-19.247 40.063l-26.398 28.846-1.649-18.696c-1.1-13.889 2.199-25.107 12.098-40.064 15.949-23.504 24.748-25.64 35.196-10.149m931.601-1.603c12.09 13.355 26.39 48.076 26.39 64.636 0 11.752-3.3 9.615-32.44-20.833-30.25-32.051-31.9-34.722-23.1-43.268 11.55-11.752 18.7-11.752 29.15-.535M969.779 892.264c12.099 5.342 28.047 14.957 35.751 20.833l13.74 11.218h-19.24c-22.552 0-65.447-10.683-96.243-24.038-21.448-9.081-21.448-9.615-8.249-13.354 24.197-7.479 51.694-5.342 74.241 5.341m-624.18-2.67c0 9.615-99.539 38.995-115.487 33.653-3.3-1.069 8.799-9.615 27.497-19.231 25.297-12.286 41.795-17.093 61.043-17.093 14.848 0 26.947 1.068 26.947 2.671m297.517 119.656c7.149 24.57 2.749 44.87-17.048 76.39l-9.349 14.95-18.148-35.25-18.148-35.26 10.449-18.69c5.499-10.69 14.298-26.178 18.698-34.725l7.699-15.492 9.349 12.287c5.499 6.944 12.648 22.969 16.498 35.79m508.144 1.6c-2.2 9.62-7.15 23.51-11 30.98-7.7 13.89-7.15 14.43-16.5-13.88-2.2-6.41 20.9-33.123 29.15-34.192 1.1 0 0 8.012-1.65 17.092m-1045.984 21.9c-1.65 9.62-3.85 18.17-4.95 19.23-2.2 2.14-9.898-17.62-15.398-38.46-3.85-14.954-3.3-14.954 9.899-6.41 11.549 7.48 13.199 11.75 10.449 25.64m326.113 17.1c1.65 13.35 5.5 25.64 8.249 27.24s4.95 6.94 4.95 12.29c0 7.47-9.899 12.28-41.795 21.9-22.548 6.41-46.195 16.56-51.695 22.43-13.198 13.89-18.698 37.4-14.298 60.9 4.949 24.57 1.1 22.97-12.649-5.88-12.098-24.57-15.398-69.44-7.149-87.07 16.498-32.58 23.648-41.66 35.196-47.54 14.849-7.48 65.993-27.24 71.492-27.78 2.2-.53 5.5 10.15 7.699 23.51m398.156-15.49c9.899 4.8 29.147 11.75 43.445 14.95 23.097 5.88 26.397 9.08 40.146 35.79 18.148 34.19 19.797 64.1 4.949 96.69-10.449 24.04-45.645 66.24-36.296 44.34 12.099-29.92 14.848-59.83 6.599-77.99-8.249-19.77-17.048-25.11-65.442-40.07-22.548-6.94-31.897-12.28-31.897-18.69 0-5.35 2.2-10.69 4.95-12.82 3.299-1.61 7.149-13.89 9.349-26.71 1.649-13.36 3.849-24.04 4.949-24.04.55 0 9.349 3.74 19.248 8.55m32.996 124.99c0 3.21-4.949 1.07-10.999-3.74-6.049-5.34-10.998-10.14-10.998-11.21 0-.54 4.949 1.07 10.998 4.27 6.05 3.21 10.999 8.01 10.999 10.68"/>
  <path fill="#fff" fill-opacity=".04" d="M431.015 577.77c-6.595 24.61 3.298 53.5 25.284 74.9 18.139 17.655 24.185 20.33 47.27 20.33 26.384 0 43.973-8.025 63.21-28.89 10.444-11.235 9.894-11.235-3.847-12.84-7.695-1.07-24.735-11.77-37.926-24.075-32.43-31.03-50.018-41.195-71.455-41.195-15.39 0-19.787 2.675-22.536 11.77M574.96 698.541c-7.267 6.9-3.913 43.519 5.032 51.48C592.85 762.228 599 755.859 599 729.854s-12.299-42.458-24.04-31.313M534.895 739.587C530.519 751.286 543.1 780 552.945 780c12.034 0 7.658-44.667-5.47-46.794-4.922-1.063-10.939 2.127-12.58 6.381"/>
</svg>
