<svg xmlns="http://www.w3.org/2000/svg" width="108" height="108" fill="none">
  <path fill="#e9e9e9" d="M42.73 7.826c-8.933 6.546-9.718 7.182-10.167 8.416-.635 1.795-1.532 1.945-3.14.561-1.008-.898-1.644-1.16-2.877-1.16-1.981 0-4.261 1.46-4.635 2.918-.112.561-.785 1.833-1.495 2.843-.972 1.421-1.233 2.17-1.233 3.59 0 2.133.71 3.966 2.018 5.2 1.27 1.197 4.223 1.347 5.42.262.934-.823.934-.636.41 2.357-.186 1.16-.448 2.88-.597 3.852l-.187 1.796h-1.832c-3.401 0-5.98 2.543-5.98 5.947 0 1.945 1.01 4.564 2.542 6.621l.86 1.197-1.421.262c-1.72.3-4.485 1.833-5.644 3.142-3.7 4.152-3.476 11.97.523 17.768.337.486.412 1.272.262 2.319-.224 1.683.3 4.227 1.346 6.508.747 1.684.971 1.983 3.289 4.34 2.915 2.992 5.756 3.478 8.148 1.458.86-.785 1.084-1.309 1.233-2.992.187-2.282-.261-3.18-1.607-3.18-.449 0-1.27.412-1.757.936-.598.56-1.196.86-1.532.71-.636-.224-2.018-3.366-1.682-3.74.112-.113 1.345.074 2.691.411 1.383.3 3.252.561 4.186.561h1.682l-.673 1.197c-1.009 1.87-.934 7.444.15 9.464 1.831 3.441 4.111 5.05 7.214 5.05 2.093 0 4.111-.86 5.158-2.17.71-.898.523-2.73-.337-3.666-.934-1.01-.822-2.094.112-1.122.785.786 1.047.748 1.047-.112 0-.898-1.01-2.132-2.355-2.806l-1.046-.523 1.196-.599c.672-.336 1.27-.598 1.308-.598.187 0 1.906 2.73 2.803 4.489l.785 1.458-.785 2.095c-.934 2.506-.972 2.88-.187 4.863.636 1.758 3.028 3.553 4.672 3.553 1.27 0 2.953-1.683 2.953-2.955 0-.523-.3-1.496-.673-2.094-.635-1.123-.635-1.123.337-2.058l.971-.972.935 1.01c.897 1.01.897 1.047.224 1.907-2.243 2.955 1.458 6.21 4.672 4.077 2.243-1.458 3.028-4.189 1.981-7.144-.86-2.506-.748-3.18 1.047-5.985 1.681-2.543 1.681-2.58 2.728-2.095.56.262 1.458.674 1.98.898.86.374.786.412-.747.412-1.868.037-3.513 1.122-3.924 2.543-.224.786-.112.86 1.121.86 1.308 0 1.346 0 .785.823-.748 1.048-.748 2.507-.037 3.517 1.158 1.72 4.747 2.543 7.064 1.645 1.532-.56 3.737-2.805 4.71-4.75 1.27-2.506 1.494-6.509.448-8.64l-.748-1.572h1.607c1.458 0 5.607-.785 7.065-1.346.41-.15.486 0 .336.673-.71 3.217-2.355 4.489-3.588 2.768-.897-1.272-2.28-1.272-3.102-.037-.524.822-.561 1.159-.15 2.655.972 3.442 4.261 4.526 7.513 2.432 3.962-2.506 7.139-8.566 6.503-12.419-.187-1.16-.037-1.796.823-3.404 1.644-2.955 2.354-5.573 2.354-8.454 0-4.413-1.607-7.593-4.933-9.688-1.084-.673-2.243-1.234-2.58-1.234-1.12 0-1.158-.673-.149-1.982 1.308-1.721 1.869-4.938 1.308-7.556-.635-3.142-3.214-5.05-6.728-5.05-1.046 0-1.046-.038-1.457-3.292-.262-1.795-.598-3.965-.785-4.825-.636-2.656-.449-4.9.374-5.723.785-.786 1.868-1.01 1.868-.374 0 .224-.41 1.047-.934 1.87-1.121 1.758-1.233 3.74-.261 4.6.934.861 4.11.824 5.195-.037 2.43-1.945 3.065-5.685 1.458-8.453-2.168-3.666-5.458-4.863-8.934-3.217-2.952 1.384-4.709 3.666-5.456 6.92-.225 1.01-.561 2.543-.748 3.366l-.336 1.497-.038-1.534c-.037-2.207-2.093-5.948-4.597-8.379-2.243-2.244-5.532-4.077-8.97-5.012-2.916-.823-9.457-.786-11.998.037-4 1.31-8.41 4.938-10.017 8.267l-.785 1.57-1.084-1.159-1.084-1.16.972-1.757c1.01-1.945 2.093-3.18 3.7-4.34 1.458-1.084 5.308-3.74 7.4-5.161 1.72-1.16 2.505-2.507 1.122-1.945-.374.15-1.458.56-2.467.935-.972.336-1.869.748-2.018.86-.748.786-.785.075-.038-.898C44.412 8.536 45.72 6.63 45.72 6.48c0-.524-1.159 0-2.99 1.347m-5.868 8.117c-1.196 1.421-2.206 2.543-2.28 2.506-.187-.15.785-2.432 1.046-2.432.15 0 .935-.598 1.72-1.309.822-.71 1.495-1.309 1.57-1.309s-.86 1.16-2.056 2.544m19.81 1.421C62.576 19.16 67.66 23.5 68.818 27.725c.485 1.684.186 3.105-1.458 6.808-.3.673-.486 2.73-.523 5.162-.038 2.88-.187 4.152-.524 4.34-.41.261-.373.486.112 1.234.598.935.598.935-.336.785-1.607-.337-2.729.187-4.896 2.32-1.346 1.346-2.392 2.057-2.99 2.057-1.309 0-1.122.598.672 1.87 1.757 1.31 4.224 1.533 5.719.524 1.308-.86 2.43-2.806 2.467-4.302.037-1.01.15-.823.41.785.599 3.629.711 3.404-1.868 4.452-3.252 1.346-4.934 2.917-4.934 4.675 0 4.078 5.532 10.362 11.587 13.205 1.794.86 5.681 1.608 8.26 1.608 5.794 0 9.68-3.74 9.68-9.314 0-3.703-2.354-7.518-4.597-7.518-1.233 0-1.046-.599.374-1.16 1.794-.673 5.009 1.459 6.466 4.302.374.71.561 2.17.561 4.114 0 2.544-.15 3.367-1.047 5.237-1.532 3.217-4.373 5.985-7.736 7.63-2.617 1.235-3.028 1.347-6.354 1.347-2.878 0-4.15-.224-6.728-1.047-1.757-.599-3.439-1.234-3.738-1.496-.299-.225-1.009-1.347-1.607-2.469-1.196-2.431-1.869-3.367-2.43-3.367-.822 0-.747 1.235.3 3.517 1.42 3.104 1.457 5.236.149 7.855-.523 1.047-1.346 2.319-1.831 2.843-1.72 1.833-3.551 5.311-3.551 6.807 0 1.646-.3 1.758-1.234.45-1.12-1.497-.86-3.03 1.271-7.407l1.944-4.115-.449-2.207c-.261-1.234-1.046-3.366-1.756-4.75-1.57-3.105-2.392-5.686-2.392-7.668 0-2.357-.337-3.18-1.309-3.18-1.233 0-1.495.561-2.167 4.115-.561 3.254-1.795 6.434-3.44 8.828-.747 1.084-.934 1.87-.934 3.59 0 1.908.262 2.731 1.87 5.986 2.018 4.077 2.317 5.76 1.158 6.807-.636.561-.71.561-.934.038-.113-.337-.225-.86-.225-1.16s-1.121-2.282-2.467-4.376c-4.335-6.621-4.746-8.641-2.765-12.68 1.009-2.058 1.084-2.357.598-2.881-.524-.486-.673-.412-1.42.524-.973 1.197-2.169 3.478-2.169 4.077 0 .449-.822.86-4.672 2.282-2.167.822-3.326 1.01-6.54 1.047-3.813.037-4 0-6.766-1.31-4.335-2.131-7.026-5.273-8.521-9.987-.524-1.683-.524-4.45.037-6.06.972-2.842 3.775-5.236 6.204-5.31 1.645-.038 2.392 1.01.86 1.159-1.308.15-2.691 1.459-3.588 3.291-.486 1.048-.598 2.133-.486 4.75.112 3.106.224 3.63 1.233 5.088 1.57 2.32 4.037 3.554 7.513 3.703 7.176.374 14.278-3.441 18.651-9.987 1.458-2.207 1.682-2.843 1.682-4.451 0-1.721-.112-2.02-1.308-2.955-.71-.562-2.355-1.497-3.626-2.02-2.056-.823-2.355-1.085-2.242-1.87.448-3.592.785-5.537 1.196-6.434.41-.823.41-1.197 0-1.945-.411-.748-.411-1.235-.038-2.47.374-1.271.374-1.944-.15-4.002-.635-2.693-1.12-4.226-1.793-5.648-2.019-4.227 3.775-11.895 10.652-14.064 2.205-.674 4.485-.674 6.765.037m-28.78 3.292c1.57.673 2.765 1.608 2.429 1.907-.112.15-.598-.112-1.01-.523-.597-.599-1.27-.786-2.653-.786-1.72 0-2.243-.262-1.607-.86.373-.411 1.532-.3 2.84.262m56.326.075c.56.336 1.308 1.16 1.681 1.795l.636 1.16-1.01-1.235c-.934-1.122-1.158-1.197-3.288-1.197-2.916 0-3.738.561-4.56 3.03-.561 1.683-.598 2.207-.15 4.938.3 1.683.523 5.573.523 8.678v5.61l-1.233 2.507c-.71 1.346-2.13 3.329-3.177 4.376l-1.906 1.908-.486-1.422c-.262-.748-.56-3.59-.636-6.321-.149-4.6-.149-4.938.599-5.61 1.233-1.086 2.765-4.864 3.625-8.903 1.159-5.574 1.42-6.285 2.729-7.556 2.429-2.32 4.672-2.918 6.653-1.758m-62.12 2.58c-.224.524-.486.86-.56.786-.188-.187.56-1.72.822-1.72.112 0-.038.41-.262.935m5.046 1.085c.41.45.486 2.843.075 2.843-.262 0-1.682-2.543-1.682-2.955 0-.561.971-.524 1.607.112m57.298 2.694c-.411 1.084-.972.486-.972-1.085l.037-1.571.561 1.047c.336.599.486 1.31.374 1.608m-59.653-.823c0 1.346-.486 2.057-.934 1.346-.337-.523.15-2.618.598-2.618.187 0 .336.56.336 1.272m7.812-.075c.187.673.486 2.057.598 3.104.523 3.965 3.027 9.913 4.373 10.362.299.112.261.56-.075 1.57-.262.786-.374 1.908-.224 2.47.187 1.084-.374 7.48-.748 7.817-.299.3-3.14-2.655-4.074-4.264-1.72-2.917-2.168-4.937-2.13-9.725.037-2.47.224-5.387.448-6.509.187-1.085.374-2.805.374-3.778 0-2.543.785-3.105 1.458-1.047m2.541 3.18c-.112.373-.187.149-.187-.45 0-.636.075-.897.187-.673.075.262.075.786 0 1.122m37.302 2.992c-.112.785-.411 1.57-.635 1.795-.3.262-.337.075-.15-.56.15-.525.374-1.31.486-1.796.336-1.384.598-.936.299.56m-35.695 2.282c0 .56-.074.56-.373.074-.486-.748-.486-1.234 0-.935.224.112.373.524.373.86m48.104 6.134c1.01.486 1.98 2.431 1.98 3.928-.037 3.291-3.737 7.032-7.699 7.743-.784.15-1.868.374-2.392.486l-.934.224.972-1.084c2.13-2.432 3.737-5.798 4.298-8.94.486-2.769.785-3.217 1.906-2.956.598.113 1.42.375 1.869.599m-58.382 1.31c.523 4.189 2.579 8.603 4.971 10.847l.934.86-1.27-.224c-4.785-.898-9.68-5.723-9.68-9.576 0-1.796 1.943-3.591 3.998-3.629.71-.037.86.225 1.047 1.721m1.42 14.325c.15.15-.373.674-1.158 1.235l-1.495.972.41-1.496c.3-1.272.487-1.459 1.16-1.234.41.112.934.374 1.083.523m54.832 1.908c.485.86.448.898-.262.225-.411-.337-.897-.636-1.084-.636s-.748-.337-1.27-.711l-.898-.71 1.27-.337c1.16-.3 1.347-.262 1.533.448.112.45.449 1.198.71 1.721m-10.503-.935c3.438 1.01 3.737 1.122 6.54 2.431 2.019.898 6.766 4.564 8 6.097.934 1.198.747 1.908-.823 3.292-1.533 1.384-1.944 1.31-2.729-.374-2.13-4.489-7.026-6.21-11.437-3.965-1.084.524-2.055 1.122-2.168 1.347-.299.486-2.84-2.057-4.522-4.489s-1.57-3.366.448-4.414c2.13-1.122 2.804-1.122 6.69.075m-28.967.337c.523.374.972.935.972 1.309 0 .785-1.57 3.18-3.7 5.573l-1.608 1.796-1.869-1.235c-1.719-1.16-2.093-1.271-4.672-1.271-2.205 0-3.14.187-4.26.823-1.495.86-3.14 2.917-3.551 4.563-.337 1.347-1.271 1.234-2.916-.411l-1.383-1.422 2.206-2.057c2.99-2.806 3.55-3.217 5.606-4.302 2.205-1.16 6.354-2.805 7.14-2.843.335 0 1.531-.336 2.653-.71 2.28-.823 3.962-.748 5.382.187m-20.034 1.309c.411.71.3 1.01-1.308 2.805l-1.794 2.02-.112-1.309c-.075-.972.15-1.758.822-2.805 1.084-1.646 1.682-1.796 2.392-.711m63.316-.112c.822.935 1.794 3.366 1.794 4.526 0 .823-.224.673-2.205-1.459-2.056-2.244-2.168-2.431-1.57-3.03.785-.823 1.27-.823 1.98-.037m-8.485 9.837c.823.374 1.907 1.048 2.43 1.46l.934.785h-1.308c-1.532 0-4.448-.748-6.54-1.684-1.458-.635-1.458-.673-.561-.935a6.92 6.92 0 0 1 5.045.374m-42.422-.187c0 .674-6.765 2.73-7.849 2.357-.224-.075.598-.673 1.869-1.347 1.72-.86 2.84-1.197 4.149-1.197 1.009 0 1.831.075 1.831.187m20.22 8.38c.487 1.72.188 3.141-1.158 5.348l-.635 1.048-1.234-2.47-1.233-2.468.71-1.31c.374-.747.972-1.832 1.27-2.43l.524-1.085.636.86c.373.486.86 1.609 1.12 2.506m34.537.111c-.15.674-.486 1.646-.748 2.17-.523.972-.486 1.01-1.121-.973-.15-.449 1.42-2.319 1.98-2.394.076 0 0 .561-.111 1.197m-71.09 1.534c-.112.673-.262 1.272-.337 1.347-.15.15-.672-1.235-1.046-2.694-.262-1.047-.224-1.047.672-.448.785.523.898.822.71 1.795m22.164 1.197c.112.935.374 1.796.56 1.908s.337.486.337.86c0 .524-.673.86-2.84 1.534-1.533.448-3.14 1.16-3.514 1.57-.897.973-1.27 2.62-.972 4.265.337 1.72.075 1.608-.86-.412-.822-1.72-1.046-4.862-.485-6.097 1.12-2.281 1.607-2.917 2.392-3.329 1.009-.523 4.485-1.907 4.859-1.945.15-.037.373.71.523 1.646m27.06-1.085c.673.337 1.981.823 2.953 1.048 1.57.411 1.794.635 2.729 2.506 1.233 2.394 1.345 4.488.336 6.77-.71 1.683-3.102 4.638-2.467 3.105.823-2.095 1.01-4.19.449-5.461-.56-1.384-1.159-1.758-4.448-2.806-1.532-.486-2.168-.86-2.168-1.309 0-.374.15-.748.337-.898.224-.112.485-.972.635-1.87.112-.935.261-1.683.336-1.683.038 0 .636.262 1.308.598m2.243 8.753c0 .225-.336.075-.748-.262-.41-.374-.747-.71-.747-.785 0-.038.336.075.748.3.41.224.747.56.747.747"/>
  <path fill="#e9e9e9" d="M41.46 46.765c-.45 1.72.224 3.74 1.719 5.236 1.233 1.235 1.644 1.422 3.214 1.422 1.794 0 2.99-.561 4.298-2.02.71-.786.673-.786-.261-.898-.524-.075-1.682-.823-2.58-1.683-2.205-2.17-3.4-2.88-4.858-2.88-1.047 0-1.346.187-1.533.823"/>
  <path fill="#fff" d="M51.214 55.181c-.486.486-.262 3.068.336 3.629.86.86 1.271.411 1.271-1.422s-.822-2.992-1.607-2.207M56.073 55.555c-.15.113-.261 1.048-.261 2.058 0 1.309.149 1.795.56 1.795.748 0 1.308-1.197 1.308-2.768 0-1.047-.15-1.346-.672-1.346-.374 0-.823.112-.935.261M58.876 57.613c-.635.636-.56 3.291.075 3.291.523 0 .972-1.085.972-2.506 0-1.01-.486-1.347-1.047-.785M48.486 58.062c-.3.822.56 2.842 1.233 2.842.823 0 .524-3.142-.373-3.291-.337-.075-.748.15-.86.449"/>
</svg>
