<svg width="282" height="320" fill="none" xmlns="http://www.w3.org/2000/svg"><path d="M103.548 11.935C74.405 33.3 71.845 35.375 70.381 39.405c-2.073 5.86-4.999 6.348-10.242 1.83-3.292-2.93-5.365-3.784-9.39-3.784-6.462 0-13.9 4.761-15.12 9.523-.365 1.83-2.56 5.982-4.877 9.278-3.17 4.64-4.023 7.081-4.023 11.72 0 6.96 2.316 12.941 6.584 16.97 4.146 3.907 13.779 4.395 17.68.855 3.049-2.686 3.049-2.076 1.342 7.691-.61 3.785-1.463 9.401-1.951 12.575l-.61 5.86H43.8c-11.097 0-19.51 8.302-19.51 19.412 0 6.348 3.292 14.894 8.291 21.609l2.805 3.907-4.634.854c-5.609.977-14.632 5.982-18.412 10.255C.268 181.512 1 207.028 14.047 225.951c1.098 1.587 1.341 4.151.854 7.569-.732 5.494.975 13.796 4.39 21.243 2.438 5.494 3.17 6.471 10.73 14.162 9.51 9.767 18.778 11.354 26.582 4.762 2.804-2.564 3.536-4.273 4.024-9.767.61-7.447-.854-10.377-5.244-10.377-1.463 0-4.146 1.342-5.73 3.052-1.952 1.831-3.903 2.808-5 2.319-2.073-.732-6.584-10.987-5.487-12.208.366-.367 4.39.244 8.78 1.343 4.51.976 10.608 1.831 13.656 1.831h5.487l-2.195 3.907c-3.292 6.104-3.048 24.295.488 30.887 5.975 11.232 13.413 16.482 23.534 16.482 6.828 0 13.412-2.808 16.827-7.081 2.316-2.93 1.707-8.912-1.098-11.964-3.048-3.297-2.682-6.837.366-3.663 2.561 2.564 3.414 2.442 3.414-.366 0-2.93-3.292-6.959-7.682-9.157l-3.414-1.709 3.902-1.953c2.195-1.099 4.146-1.954 4.268-1.954.609 0 6.219 8.913 9.145 14.651l2.561 4.761-2.561 6.837c-3.048 8.18-3.17 9.4-.61 15.871 2.073 5.738 9.877 11.598 15.242 11.598 4.146 0 9.633-5.494 9.633-9.645 0-1.709-.975-4.883-2.195-6.837-2.073-3.662-2.073-3.662 1.098-6.714l3.17-3.174 3.048 3.296c2.927 3.296 2.927 3.418.732 6.226-7.316 9.645 4.756 20.266 15.242 13.308 7.316-4.762 9.877-13.674 6.463-23.319-2.805-8.18-2.439-10.377 3.414-19.534 5.487-8.301 5.487-8.423 8.901-6.836 1.829.854 4.756 2.197 6.463 2.93 2.804 1.221 2.56 1.343-2.439 1.343-6.097.122-11.462 3.662-12.803 8.302-.732 2.563-.366 2.807 3.658 2.807 4.267 0 4.389 0 2.56 2.686-2.438 3.419-2.438 8.18-.122 11.476 3.78 5.616 15.486 8.302 23.046 5.372 5-1.831 12.194-9.156 15.364-15.505 4.146-8.179 4.878-21.243 1.463-28.201l-2.438-5.128h5.243c4.755 0 18.29-2.564 23.046-4.395 1.341-.488 1.585 0 1.097 2.197-2.317 10.5-7.682 14.651-11.706 9.035-2.926-4.151-7.438-4.151-10.12-.122-1.707 2.686-1.829 3.784-.488 8.668 3.17 11.232 13.901 14.772 24.509 7.935 12.925-8.179 23.29-27.957 21.217-40.532-.61-3.785-.122-5.86 2.682-11.11 5.365-9.645 7.682-18.191 7.682-27.591 0-14.406-5.243-24.784-16.095-31.62-3.536-2.198-7.316-4.029-8.414-4.029-3.658 0-3.78-2.198-.488-6.471 4.268-5.616 6.097-16.115 4.268-24.661-2.073-10.255-10.486-16.482-21.948-16.482-3.414 0-3.414-.122-4.756-10.743-.853-5.86-1.951-12.941-2.56-15.75-2.073-8.667-1.464-15.993 1.219-18.678 2.561-2.564 6.097-3.297 6.097-1.221 0 .732-1.341 3.418-3.049 6.104-3.658 5.738-4.023 12.209-.853 15.017 3.048 2.808 13.413 2.686 16.949-.123 7.926-6.348 9.999-18.557 4.755-27.59-7.072-11.965-17.802-15.872-29.142-10.5-9.633 4.517-15.364 11.964-17.803 22.586-.731 3.296-1.829 8.302-2.438 10.987l-1.098 4.884-.122-5.006c-.122-7.203-6.828-19.411-14.998-27.347-7.316-7.325-18.046-13.307-29.264-16.36-9.511-2.685-30.85-2.563-39.142.123-13.047 4.273-27.435 16.115-32.678 26.98l-2.561 5.128-3.536-3.784-3.536-3.785 3.17-5.738c3.292-6.349 6.828-10.377 12.072-14.162 4.755-3.54 17.314-12.209 24.143-16.848 5.609-3.785 8.17-8.18 3.658-6.348-1.219.488-4.756 1.83-8.048 3.052-3.17 1.099-6.097 2.442-6.584 2.808-2.439 2.564-2.561.244-.122-2.93 5.243-7.203 9.511-13.43 9.511-13.918 0-1.71-3.78 0-9.755 4.395ZM84.404 38.428c-3.902 4.639-7.194 8.302-7.438 8.18-.61-.489 2.56-7.936 3.414-7.936.488 0 3.049-1.954 5.61-4.273 2.682-2.32 4.877-4.273 5.12-4.273.244 0-2.804 3.784-6.706 8.302Zm64.626 4.639c19.266 5.86 35.849 20.022 39.629 33.818 1.585 5.493.609 10.133-4.756 22.22-.975 2.197-1.585 8.911-1.707 16.847-.122 9.401-.609 13.552-1.707 14.162-1.341.855-1.219 1.587.366 4.029 1.951 3.052 1.951 3.052-1.097 2.564-5.244-1.099-8.902.61-15.974 7.569-4.39 4.395-7.804 6.715-9.755 6.715-4.268 0-3.658 1.953 2.195 6.104 5.731 4.273 13.779 5.005 18.656 1.709 4.268-2.808 7.926-9.156 8.048-14.04.122-3.296.488-2.686 1.341 2.564 1.951 11.842 2.317 11.11-6.097 14.528-10.608 4.395-16.095 9.523-16.095 15.261 0 13.307 18.046 33.818 37.8 43.096 5.853 2.808 18.534 5.25 26.948 5.25 18.9 0 31.581-12.209 31.581-30.4 0-12.086-7.682-24.539-14.998-24.539-4.024 0-3.414-1.953 1.219-3.784 5.853-2.198 16.34 4.761 21.095 14.039 1.219 2.32 1.829 7.081 1.829 13.43 0 8.302-.488 10.988-3.414 17.092-5 10.499-14.267 19.534-25.241 24.905-8.535 4.029-9.877 4.395-20.729 4.395-9.389 0-13.535-.732-21.948-3.418-5.731-1.953-11.218-4.029-12.194-4.883-.975-.733-3.292-4.395-5.243-8.058-3.902-7.936-6.097-10.988-7.926-10.988-2.682 0-2.438 4.029.976 11.476 4.633 10.133 4.755 17.092.487 25.638-1.707 3.419-4.389 7.57-5.974 9.279-5.609 5.982-11.584 17.336-11.584 22.219 0 5.372-.976 5.738-4.024 1.465-3.658-4.883-2.805-9.889 4.146-24.173l6.34-13.429-1.463-7.203c-.853-4.029-3.414-10.988-5.731-15.505-5.121-10.133-7.804-18.557-7.804-25.027 0-7.692-1.097-10.378-4.267-10.378-4.024 0-4.878 1.832-7.073 13.43-1.829 10.621-5.853 20.998-11.218 28.812-2.439 3.54-3.048 6.104-3.048 11.72 0 6.226.853 8.912 6.097 19.534 6.584 13.307 7.56 18.801 3.78 22.219-2.073 1.832-2.317 1.832-3.049.122-.366-1.098-.731-2.807-.731-3.784 0-.977-3.658-7.447-8.048-14.284-14.145-21.609-15.486-28.202-9.023-41.387 3.292-6.715 3.536-7.692 1.951-9.401-1.708-1.587-2.195-1.343-4.634 1.709-3.17 3.907-7.072 11.354-7.072 13.308 0 1.465-2.683 2.808-15.242 7.447-7.072 2.686-10.852 3.296-21.339 3.418-12.437.122-13.047 0-22.07-4.273-14.145-6.959-22.924-17.214-27.801-32.597-1.708-5.493-1.708-14.528.121-19.777 3.17-9.279 12.316-17.092 20.242-17.337 5.365-.122 7.804 3.297 2.804 3.785-4.267.488-8.78 4.761-11.705 10.744-1.586 3.418-1.951 6.959-1.586 15.505.366 10.133.732 11.842 4.024 16.603 5.121 7.569 13.17 11.598 24.51 12.087 23.41 1.22 46.579-11.232 60.845-32.597 4.755-7.203 5.487-9.279 5.487-14.528 0-5.616-.366-6.593-4.268-9.645-2.316-1.831-7.682-4.884-11.827-6.593-6.707-2.686-7.682-3.54-7.316-6.104 1.463-11.72 2.56-18.069 3.901-20.999 1.342-2.686 1.342-3.907 0-6.348-1.34-2.442-1.34-4.029-.121-8.058 1.219-4.151 1.219-6.348-.488-13.063-2.073-8.79-3.658-13.796-5.853-18.435-6.585-13.796 12.315-38.823 34.751-45.904 7.195-2.198 14.633-2.198 22.071.122ZM55.14 53.81c5.12 2.198 9.023 5.25 7.925 6.227-.365.488-1.95-.367-3.292-1.71-1.951-1.953-4.146-2.563-8.657-2.563-5.61 0-7.316-.855-5.244-2.808 1.22-1.343 5-.977 9.267.854Zm183.756.245c1.829 1.098 4.268 3.784 5.487 5.86l2.073 3.784-3.292-4.029c-3.048-3.662-3.78-3.906-10.73-3.906-9.511 0-12.194 1.831-14.876 9.889-1.83 5.494-1.951 7.203-.488 16.115.975 5.494 1.707 18.19 1.707 28.324v18.313l-4.024 8.179c-2.317 4.396-6.95 10.866-10.365 14.284l-6.218 6.227-1.585-4.639c-.854-2.442-1.829-11.721-2.073-20.633-.488-15.016-.488-16.115 1.951-18.313 4.024-3.54 9.023-15.87 11.827-29.056 3.78-18.19 4.634-20.51 8.902-24.661 7.926-7.57 15.242-9.523 21.704-5.738ZM36.24 62.478c-.732 1.71-1.586 2.809-1.83 2.564-.61-.61 1.83-5.616 2.683-5.616.366 0-.122 1.343-.854 3.052ZM52.7 66.02c1.342 1.465 1.586 9.278.245 9.278-.854 0-5.487-8.301-5.487-9.644 0-1.832 3.17-1.71 5.243.366Zm186.928 8.79c-1.341 3.54-3.17 1.587-3.17-3.54l.121-5.128 1.829 3.418c1.098 1.954 1.586 4.273 1.22 5.25Zm-194.61-2.686c0 4.395-1.584 6.715-3.048 4.395-1.097-1.709.488-8.546 1.951-8.546.61 0 1.098 1.832 1.098 4.151Zm25.485-.244c.61 2.198 1.585 6.715 1.951 10.133 1.707 12.941 9.877 32.353 14.267 33.818.975.366.853 1.831-.244 5.128-.854 2.563-1.22 6.226-.732 8.057.61 3.541-1.22 24.417-2.438 25.516-.976.977-10.243-8.668-13.291-13.918-5.61-9.522-7.073-16.115-6.95-31.742.121-8.058.73-17.58 1.462-21.243.61-3.54 1.22-9.156 1.22-12.33 0-8.302 2.56-10.134 4.755-3.419Zm8.292 10.377c-.366 1.221-.61.489-.61-1.465 0-2.075.244-2.93.61-2.197.244.854.244 2.564 0 3.662Zm121.692 9.767c-.366 2.564-1.342 5.128-2.073 5.86-.976.855-1.098.245-.488-1.831.488-1.71 1.219-4.273 1.585-5.86 1.097-4.517 1.951-3.052.976 1.831ZM84.038 99.47c0 1.832-.244 1.832-1.22.245-1.584-2.442-1.584-4.03 0-3.053.732.367 1.22 1.71 1.22 2.808Zm156.931 20.022c3.292 1.588 6.463 7.936 6.463 12.819-.122 10.744-12.194 22.953-25.119 25.272a422.987 422.987 0 0 0-7.804 1.587l-3.048.733 3.17-3.541c6.95-7.935 12.194-18.923 14.023-29.178 1.585-9.034 2.56-10.499 6.218-9.645 1.951.366 4.634 1.221 6.097 1.953Zm-190.463 4.273c1.707 13.674 8.413 28.08 16.217 35.405l3.049 2.808-4.146-.732c-15.608-2.93-31.581-18.679-31.581-31.254 0-5.86 6.34-11.72 13.047-11.842 2.316-.123 2.804.732 3.414 5.615Zm4.633 46.759c.488.489-1.219 2.198-3.78 4.029l-4.877 3.174 1.341-4.883c.976-4.151 1.585-4.761 3.78-4.029 1.342.366 3.049 1.221 3.536 1.709Zm178.88 6.227c1.585 2.808 1.463 2.93-.854.732-1.341-1.099-2.926-2.075-3.536-2.075-.61 0-2.439-1.099-4.146-2.32l-2.926-2.32 4.146-1.098c3.78-.977 4.389-.855 4.999 1.465.366 1.465 1.463 3.906 2.317 5.616Zm-34.264-3.052c11.218 3.296 12.193 3.662 21.339 7.935 6.584 2.93 22.07 14.895 26.094 19.9 3.048 3.907 2.439 6.226-2.683 10.744-4.999 4.517-6.34 4.273-8.901-1.221-6.95-14.651-22.924-20.267-37.312-12.941-3.536 1.709-6.707 3.662-7.073 4.395-.975 1.587-9.267-6.715-14.754-14.651-5.487-7.935-5.121-10.987 1.463-14.406 6.951-3.662 9.146-3.662 21.827.245Zm-94.5 1.098c1.707 1.221 3.17 3.052 3.17 4.273 0 2.564-5.121 10.378-12.071 18.191l-5.244 5.86-6.096-4.029c-5.61-3.784-6.829-4.151-15.242-4.151-7.195 0-10.243.611-13.9 2.686-4.878 2.808-10.243 9.523-11.585 14.895-1.097 4.395-4.146 4.029-9.51-1.343l-4.512-4.639 7.194-6.715c9.755-9.157 11.584-10.5 18.29-14.04 7.194-3.785 20.73-9.156 23.29-9.279 1.097 0 5-1.098 8.657-2.319 7.438-2.686 12.925-2.442 17.559.61Zm-65.357 4.273c1.34 2.32.975 3.297-4.268 9.157l-5.853 6.592-.366-4.273c-.244-3.174.488-5.738 2.683-9.156 3.536-5.372 5.487-5.86 7.803-2.32Zm206.558-.366c2.683 3.052 5.853 10.988 5.853 14.772 0 2.686-.731 2.198-7.194-4.761-6.707-7.325-7.072-7.936-5.121-9.889 2.56-2.686 4.145-2.686 6.462-.122Zm-27.679 32.109c2.682 1.22 6.219 3.418 7.926 4.761l3.048 2.564h-4.268c-4.999 0-14.51-2.442-21.338-5.494-4.756-2.076-4.756-2.198-1.829-3.052 5.365-1.71 11.462-1.221 16.461 1.221Zm-138.397-.611c0 2.198-22.07 8.912-25.606 7.692-.732-.245 1.95-2.198 6.096-4.396 5.61-2.808 9.268-3.906 13.535-3.906 3.293 0 5.975.244 5.975.61Zm65.967 27.347c1.585 5.616.61 10.255-3.78 17.459l-2.073 3.418-4.024-8.058-4.023-8.057 2.316-4.273c1.22-2.442 3.171-5.983 4.146-7.936l1.707-3.54 2.073 2.808c1.219 1.587 2.805 5.249 3.658 8.179Zm112.669.367c-.488 2.197-1.586 5.371-2.439 7.081-1.707 3.174-1.585 3.296-3.658-3.175-.488-1.465 4.633-7.569 6.462-7.813.244 0 0 1.831-.365 3.907Zm-231.922 5.005c-.366 2.198-.853 4.151-1.097 4.395-.488.488-2.195-4.029-3.414-8.79-.854-3.418-.732-3.418 2.195-1.465 2.56 1.709 2.926 2.686 2.316 5.86Zm72.308 3.907c.366 3.052 1.219 5.86 1.829 6.226.61.366 1.097 1.587 1.097 2.808 0 1.709-2.194 2.808-9.267 5.006-4.999 1.465-10.242 3.784-11.462 5.127-2.926 3.174-4.145 8.546-3.17 13.918 1.098 5.616.244 5.25-2.804-1.343-2.683-5.616-3.415-15.871-1.585-19.9 3.657-7.447 5.243-9.523 7.803-10.866 3.293-1.709 14.633-6.226 15.852-6.348.488-.122 1.22 2.32 1.707 5.372Zm88.281-3.541c2.195 1.099 6.463 2.686 9.633 3.419 5.122 1.343 5.853 2.075 8.902 8.179 4.023 7.814 4.389 14.651 1.097 22.098-2.317 5.494-10.121 15.139-8.048 10.133 2.683-6.837 3.292-13.674 1.463-17.824-1.829-4.518-3.78-5.738-14.51-9.157-4.999-1.587-7.072-2.808-7.072-4.273 0-1.221.488-2.442 1.097-2.93.732-.366 1.585-3.174 2.073-6.104.366-3.052.854-5.494 1.098-5.494.122 0 2.072.855 4.267 1.953Zm7.316 28.568c0 .733-1.097.245-2.438-.854-1.342-1.221-2.439-2.32-2.439-2.564 0-.122 1.097.244 2.439.977 1.341.732 2.438 1.831 2.438 2.441Z" fill="#fff" fill-opacity=".04"/><path d="M99.402 139.026c-1.463 5.616.732 12.209 5.609 17.092 4.024 4.029 5.365 4.639 10.487 4.639 5.853 0 9.755-1.831 14.022-6.592 2.317-2.564 2.195-2.564-.853-2.93-1.707-.244-5.487-2.686-8.414-5.494-7.194-7.081-11.096-9.401-15.851-9.401-3.415 0-4.39.611-5 2.686ZM131.227 166.495c-1.585 1.588-.853 10.011 1.097 11.843 2.805 2.808 4.146 1.343 4.146-4.639 0-5.983-2.682-9.767-5.243-7.204ZM147.079 167.716c-.488.367-.853 3.419-.853 6.715 0 4.273.487 5.86 1.829 5.86 2.438 0 4.267-3.907 4.267-9.034 0-3.419-.487-4.395-2.194-4.395-1.22 0-2.683.366-3.049.854ZM156.224 174.431c-2.073 2.075-1.829 10.744.244 10.744 1.707 0 3.17-3.541 3.17-8.18 0-3.296-1.585-4.395-3.414-2.564ZM122.325 175.896c-.975 2.686 1.829 9.279 4.024 9.279 2.683 0 1.707-10.256-1.219-10.744-1.097-.244-2.439.488-2.805 1.465Z" fill="#fff" fill-opacity=".04"/></svg>