<svg width="74" height="84" viewBox="0 0 74 84" fill="none" xmlns="http://www.w3.org/2000/svg">
<path d="M27.1813 3.13296C19.5314 8.74127 18.8592 9.28608 18.4751 10.3436C17.931 11.8819 17.1628 12.0101 15.7864 10.8244C14.9222 10.0552 14.3781 9.83089 13.3218 9.83089C11.6254 9.83089 9.67288 11.0807 9.35279 12.3306C9.25677 12.8113 8.68062 13.9009 8.07247 14.7662C7.24026 15.984 7.01621 16.6249 7.01621 17.8428C7.01621 19.6695 7.62436 21.2398 8.74464 22.2974C9.83292 23.3229 12.3616 23.4511 13.3858 22.5217C14.186 21.8166 14.186 21.9769 13.7379 24.5407C13.5779 25.5341 13.3538 27.0083 13.2258 27.8416L13.0657 29.3798H11.4973C8.5846 29.3798 6.37604 31.5591 6.37604 34.4754C6.37604 36.1419 7.24026 38.3852 8.55259 40.1478L9.28878 41.1733L8.07247 41.3976C6.6001 41.654 4.2315 42.968 3.23925 44.0896C0.0704564 47.6469 0.262505 54.3448 3.68737 59.3122C3.97544 59.7288 4.03946 60.4018 3.91142 61.2991C3.71938 62.7413 4.16749 64.9205 5.06371 66.8754C5.70388 68.3175 5.89592 68.5739 7.88042 70.5929C10.3771 73.1567 12.8097 73.5733 14.8582 71.8428C15.5944 71.1698 15.7864 70.7211 15.9144 69.279C16.0745 67.3241 15.6904 66.5549 14.5381 66.5549C14.154 66.5549 13.4498 66.9074 13.0337 67.3561C12.5216 67.8368 12.0095 68.0932 11.7214 67.965C11.1773 67.7727 9.99296 65.0807 10.281 64.7603C10.3771 64.6641 11.4333 64.8244 12.5856 65.1128C13.7699 65.3692 15.3703 65.5935 16.1705 65.5935H17.6109L17.0347 66.619C16.1705 68.2214 16.2345 72.9965 17.1628 74.727C18.7312 77.6754 20.6836 79.0534 23.3403 79.0534C25.1328 79.0534 26.8612 78.3163 27.7574 77.1947C28.3656 76.4255 28.2055 74.8552 27.4694 74.054C26.6692 73.1887 26.7652 72.2594 27.5654 73.0926C28.2376 73.7656 28.4616 73.7336 28.4616 72.9965C28.4616 72.2273 27.5974 71.1698 26.4451 70.5929L25.5489 70.1442L26.5731 69.6315C27.1493 69.343 27.6614 69.1187 27.6934 69.1187C27.8535 69.1187 29.3258 71.4582 30.094 72.9644L30.7662 74.2143L30.094 76.0089C29.2938 78.1561 29.2618 78.4766 29.934 80.1751C30.4781 81.6813 32.5266 83.2196 33.935 83.2196C35.0233 83.2196 36.4636 81.7775 36.4636 80.6879C36.4636 80.2392 36.2076 79.406 35.8875 78.8932C35.3433 77.9318 35.3433 77.9318 36.1756 77.1306L37.0078 76.2973L37.808 77.1626C38.5762 78.0279 38.5762 78.06 38 78.7971C36.0795 81.3288 39.2483 84.1169 42.001 82.2902C43.9215 81.0404 44.5937 78.7009 43.6974 76.1692C42.9613 74.022 43.0573 73.4451 44.5937 71.0416C46.034 68.8623 46.034 68.8303 46.9303 69.2469C47.4104 69.4712 48.1786 69.8238 48.6267 70.016C49.3629 70.3365 49.2989 70.3686 47.9865 70.3686C46.3861 70.4006 44.9778 71.33 44.6257 72.5478C44.4336 73.2208 44.5297 73.2849 45.5859 73.2849C46.7062 73.2849 46.7382 73.2849 46.2581 73.9899C45.6179 74.8873 45.6179 76.1371 46.2261 77.0024C47.2183 78.4766 50.2911 79.1816 52.2756 78.4125C53.5879 77.9318 55.4764 76.0089 56.3086 74.3425C57.3969 72.1953 57.5889 68.7662 56.6927 66.9395L56.0526 65.5935H57.4289C58.6772 65.5935 62.2301 64.9205 63.4784 64.4398C63.8305 64.3116 63.8945 64.4398 63.7665 65.0166C63.1583 67.7727 61.75 68.8623 60.6937 67.3882C59.9255 66.2985 58.7412 66.2985 58.0371 67.3561C57.5889 68.0611 57.5569 68.3496 57.909 69.6315C58.7412 72.5798 61.5579 73.5092 64.3426 71.7146C67.7355 69.5674 70.4562 64.3757 69.912 61.0748C69.752 60.0813 69.88 59.5365 70.6162 58.1585C72.0246 55.6267 72.6327 53.3834 72.6327 50.9157C72.6327 47.1341 71.2564 44.4101 68.4077 42.6155C67.4794 42.0386 66.4872 41.5579 66.1991 41.5579C65.2389 41.5579 65.2069 40.981 66.0711 39.8594C67.1914 38.3852 67.6715 35.6291 67.1914 33.3858C66.6472 30.6938 64.4387 29.0594 61.4299 29.0594C60.5337 29.0594 60.5337 29.0273 60.1816 26.2392C59.9575 24.7009 59.6695 22.8422 59.5094 22.1051C58.9653 19.8297 59.1253 17.9068 59.8295 17.2018C60.5017 16.5288 61.4299 16.3365 61.4299 16.8813C61.4299 17.0736 61.0778 17.7787 60.6297 18.4837C59.6695 19.9899 59.5734 21.6884 60.4057 22.4255C61.2059 23.1626 63.9265 23.1306 64.8548 22.3935C66.9353 20.727 67.4794 17.5223 66.1031 15.1508C64.2466 12.0101 61.4299 10.9846 58.4532 12.3947C55.9245 13.5804 54.4201 15.5353 53.78 18.3235C53.5879 19.1887 53.2999 20.5027 53.1398 21.2077L52.8518 22.4896L52.8197 21.1757C52.7877 19.2849 51.0273 16.0801 48.8828 13.9971C46.9623 12.0742 44.1456 10.5039 41.2008 9.70269C38.7042 8.99765 33.1028 9.02969 30.9262 9.73474C27.5014 10.8564 23.7244 13.965 22.3481 16.8172L21.6759 18.1632L20.7477 17.1698L19.8194 16.1763L20.6516 14.6701C21.5159 13.0036 22.4441 11.946 23.8204 10.9525C25.0688 10.0232 28.3656 7.7478 30.158 6.52999C31.6304 5.53652 32.3026 4.38281 31.1183 4.86353C30.7982 4.99171 29.87 5.34424 29.0057 5.66471C28.1735 5.95314 27.4053 6.30566 27.2773 6.4018C26.6371 7.0748 26.6051 6.4659 27.2453 5.63266C28.6216 3.74186 29.7419 2.10744 29.7419 1.97925C29.7419 1.53059 28.7497 1.97925 27.1813 3.13296ZM22.156 10.0873C21.1318 11.3051 20.2675 12.2665 20.2035 12.2344C20.0435 12.1063 20.8757 10.1514 21.0998 10.1514C21.2278 10.1514 21.9 9.6386 22.5721 9.02969C23.2763 8.42079 23.8524 7.90804 23.9165 7.90804C23.9805 7.90804 23.1803 8.9015 22.156 10.0873ZM39.1203 11.3051C44.1776 12.8433 48.5307 16.5609 49.5229 20.1822C49.939 21.6244 49.683 22.8422 48.2746 26.0149C48.0185 26.5917 47.8585 28.3543 47.8265 30.4374C47.7945 32.9051 47.6664 33.9947 47.3784 34.1549C47.0263 34.3792 47.0583 34.5715 47.4744 35.2125C47.9865 36.0137 47.9865 36.0137 47.1863 35.8855C45.81 35.5971 44.8497 36.0457 42.9933 37.8724C41.841 39.0261 40.9448 39.635 40.4326 39.635C39.3123 39.635 39.4724 40.1478 41.0088 41.2374C42.5131 42.3591 44.6257 42.5514 45.906 41.6861C47.0263 40.949 47.9865 39.2825 48.0185 38.0006C48.0505 37.1353 48.1466 37.2956 48.3706 38.6736C48.8828 41.7822 48.9788 41.5899 46.7702 42.4873C43.9855 43.641 42.5452 44.987 42.5452 46.4932C42.5452 49.9864 47.2823 55.3703 52.4677 57.806C54.004 58.543 57.3329 59.184 59.5414 59.184C64.5027 59.184 67.8315 55.9792 67.8315 51.2042C67.8315 48.0315 65.815 44.7626 63.8945 44.7626C62.8383 44.7626 62.9983 44.2499 64.2146 43.7692C65.751 43.1923 68.5037 45.019 69.752 47.4546C70.0721 48.0635 70.2321 49.3134 70.2321 50.9798C70.2321 53.1591 70.1041 53.8641 69.3359 55.4665C68.0236 58.2226 65.591 60.5941 62.7102 62.0042C60.4697 63.0617 60.1176 63.1579 57.2689 63.1579C54.8042 63.1579 53.716 62.9656 51.5074 62.2606C50.003 61.7478 48.5627 61.203 48.3066 60.9787C48.0505 60.7864 47.4424 59.8249 46.9303 58.8635C45.906 56.7804 45.3299 55.9792 44.8497 55.9792C44.1456 55.9792 44.2096 57.0368 45.1058 58.9917C46.3221 61.6517 46.3541 63.4784 45.2338 65.7217C44.7857 66.619 44.0815 67.7086 43.6654 68.1573C42.1931 69.7276 40.6247 72.708 40.6247 73.9899C40.6247 75.4 40.3686 75.4962 39.5684 74.3745C38.6082 73.0926 38.8322 71.7787 40.6567 68.0291L42.3211 64.5039L41.937 62.6131C41.7129 61.5555 41.0408 59.7288 40.4326 58.543C39.0883 55.8831 38.3841 53.6718 38.3841 51.9733C38.3841 49.9543 38.096 49.2493 37.2638 49.2493C36.2076 49.2493 35.9835 49.73 35.4074 52.7745C34.9272 55.5626 33.871 58.2867 32.4626 60.3377C31.8225 61.2671 31.6624 61.9401 31.6624 63.4143C31.6624 65.0487 31.8865 65.7537 33.2628 68.5419C34.9913 72.035 35.2473 73.4772 34.2551 74.3745C33.7109 74.8552 33.6469 74.8552 33.4549 74.4065C33.3588 74.1181 33.2628 73.6695 33.2628 73.4131C33.2628 73.1567 32.3026 71.4582 31.1503 69.6635C27.4374 63.9911 27.0853 62.2606 28.7817 58.7994C29.6459 57.0368 29.7099 56.7804 29.2938 56.3318C28.8457 55.9152 28.7177 55.9792 28.0775 56.7804C27.2453 57.806 26.221 59.7609 26.221 60.2736C26.221 60.6582 25.5169 61.0107 22.22 62.2285C20.3636 62.9336 19.3713 63.0938 16.6186 63.1258C13.3538 63.1579 13.1938 63.1258 10.8252 62.0042C7.11223 60.1775 4.80765 57.4855 3.52733 53.4475C3.07921 52.0054 3.07921 49.6339 3.55934 48.2558C4.39154 45.8202 6.79215 43.7692 8.87267 43.7051C10.281 43.673 10.9212 44.5703 9.60886 44.6985C8.48858 44.8267 7.30428 45.9484 6.53609 47.5187C6.11998 48.416 6.02396 49.3454 6.11998 51.5887C6.216 54.2487 6.31203 54.6973 7.17625 55.9472C8.52059 57.9341 10.6331 58.9917 13.6099 59.1199C19.7554 59.4404 25.8369 56.1715 29.5819 50.5632C30.8302 48.6724 31.0223 48.1276 31.0223 46.7496C31.0223 45.2754 30.9262 45.019 29.902 44.2178C29.2938 43.7371 27.8855 42.9359 26.7972 42.4873C25.0367 41.7822 24.7807 41.5579 24.8767 40.8849C25.2608 37.8083 25.5489 36.1419 25.901 35.3727C26.2531 34.6677 26.2531 34.3472 25.901 33.7063C25.5489 33.0653 25.5489 32.6487 25.869 31.5911C26.189 30.5015 26.189 29.9247 25.7409 28.162C25.1968 25.8546 24.7807 24.5407 24.2045 23.3229C22.4761 19.7015 27.4374 13.1318 33.3268 11.273C35.2153 10.6962 37.1678 10.6962 39.1203 11.3051ZM14.4741 14.1252C15.8184 14.7021 16.8427 15.5033 16.5546 15.7597C16.4586 15.8879 16.0425 15.6635 15.6904 15.311C15.1783 14.7982 14.6021 14.638 13.4178 14.638C11.9454 14.638 11.4973 14.4137 12.0415 13.9009C12.3616 13.5484 13.3538 13.6445 14.4741 14.1252ZM62.7102 14.1893C63.1904 14.4778 63.8305 15.1828 64.1506 15.7276L64.6947 16.7211L63.8305 15.6635C63.0303 14.7021 62.8383 14.638 61.0138 14.638C58.5172 14.638 57.813 15.1187 57.1088 17.2338C56.6287 18.676 56.5967 19.1246 56.9808 21.4641C57.2369 22.9063 57.4289 26.2392 57.4289 28.8991V33.7063L56.3726 35.8534C55.7645 37.0071 54.5482 38.7057 53.652 39.603L52.0195 41.2374L51.6034 40.0196C51.3794 39.3787 51.1233 36.943 51.0593 34.6036C50.9313 30.6617 50.9313 30.3733 51.5714 29.7965C52.6277 28.8671 53.94 25.6303 54.6762 22.1692C55.6685 17.3941 55.8925 16.7852 57.0128 15.6956C59.0933 13.7086 61.0138 13.1959 62.7102 14.1893ZM9.51283 16.4006C9.32079 16.8493 9.09673 17.1377 9.03271 17.0736C8.87267 16.9134 9.51283 15.5994 9.73689 15.5994C9.83292 15.5994 9.70488 15.952 9.51283 16.4006ZM13.8339 17.33C14.186 17.7146 14.25 19.7656 13.8979 19.7656C13.6739 19.7656 12.4576 17.5864 12.4576 17.2338C12.4576 16.7531 13.2898 16.7852 13.8339 17.33ZM62.9023 19.6374C62.5502 20.5668 62.0701 20.054 62.0701 18.708L62.1021 17.362L62.5822 18.2594C62.8703 18.7721 62.9983 19.381 62.9023 19.6374ZM11.8174 18.9324C11.8174 20.0861 11.4013 20.695 11.0172 20.0861C10.7291 19.6374 11.1452 17.8428 11.5293 17.8428C11.6894 17.8428 11.8174 18.3235 11.8174 18.9324ZM18.5071 18.8683C18.6671 19.4451 18.9232 20.6309 19.0192 21.5282C19.4673 24.9252 21.6119 30.0208 22.7642 30.4054C23.0202 30.5015 22.9882 30.8861 22.7002 31.7514C22.4761 32.4244 22.3801 33.3858 22.5081 33.8665C22.6681 34.7959 22.188 40.276 21.8679 40.5644C21.6119 40.8208 19.1793 38.289 18.3791 36.911C16.9067 34.4113 16.5226 32.6807 16.5546 28.5787C16.5866 26.4635 16.7467 23.9638 16.9387 23.0024C17.0987 22.073 17.2588 20.5988 17.2588 19.7656C17.2588 17.5864 17.931 17.1057 18.5071 18.8683ZM20.6836 21.5923C20.5876 21.9128 20.5236 21.7205 20.5236 21.2077C20.5236 20.6629 20.5876 20.4386 20.6836 20.6309C20.7477 20.8552 20.7477 21.3039 20.6836 21.5923ZM52.6277 24.1561C52.5317 24.8291 52.2756 25.5021 52.0836 25.6944C51.8275 25.9187 51.7955 25.7585 51.9555 25.2137C52.0836 24.765 52.2756 24.092 52.3716 23.6754C52.6597 22.4896 52.8838 22.8742 52.6277 24.1561ZM22.06 26.111C22.06 26.5917 21.996 26.5917 21.7399 26.1751C21.3238 25.5341 21.3238 25.1175 21.7399 25.3739C21.932 25.4701 22.06 25.8226 22.06 26.111ZM63.2544 31.3668C64.1186 31.7834 64.9508 33.4499 64.9508 34.7318C64.9188 37.5519 61.75 40.7567 58.3571 41.3656C57.685 41.4938 56.7567 41.6861 56.3086 41.7822L55.5084 41.9745L56.3406 41.0451C58.1651 38.962 59.5414 36.0778 60.0216 33.3858C60.4377 31.0143 60.6937 30.6297 61.654 30.854C62.1661 30.9502 62.8703 31.1745 63.2544 31.3668ZM13.2578 32.4884C13.7059 36.0778 15.4663 39.8594 17.5149 41.7822L18.3151 42.5193L17.2268 42.327C13.1297 41.5579 8.93669 37.4238 8.93669 34.1229C8.93669 32.5846 10.6011 31.0463 12.3616 31.0143C12.9697 30.9822 13.0977 31.2066 13.2578 32.4884ZM14.4741 44.7626C14.6021 44.8908 14.154 45.3395 13.4818 45.8202L12.2015 46.6534L12.5536 45.3715C12.8097 44.2819 12.9697 44.1217 13.5459 44.314C13.8979 44.4101 14.3461 44.6344 14.4741 44.7626ZM61.4299 46.3971C61.846 47.1341 61.814 47.1662 61.2059 46.5893C60.8538 46.3009 60.4377 46.0445 60.2776 46.0445C60.1176 46.0445 59.6375 45.7561 59.1894 45.4356L58.4212 44.8267L59.5094 44.5383C60.5017 44.2819 60.6617 44.314 60.8218 44.9229C60.9178 45.3074 61.2059 45.9484 61.4299 46.3971ZM52.4356 45.5959C55.3804 46.4611 55.6365 46.5573 58.0371 47.679C59.7655 48.4481 63.8305 51.5887 64.8868 52.9027C65.687 53.9282 65.5269 54.5371 64.1826 55.7229C62.8703 56.9086 62.5182 56.8445 61.846 55.4024C60.0216 51.5567 55.8285 50.0825 52.0516 52.0054C51.1233 52.454 50.2911 52.9668 50.1951 53.1591C49.939 53.5757 47.7625 51.3965 46.3221 49.3134C44.8817 47.2303 44.9778 46.4291 46.7062 45.5318C48.5307 44.5703 49.1068 44.5703 52.4356 45.5959ZM27.6294 45.8843C28.0775 46.2048 28.4616 46.6855 28.4616 47.006C28.4616 47.679 27.1173 49.73 25.2928 51.781L23.9165 53.3193L22.3161 52.2617C20.8437 51.2683 20.5236 51.1721 18.3151 51.1721C16.4266 51.1721 15.6264 51.3324 14.6661 51.8772C13.3858 52.6143 11.9775 54.3769 11.6254 55.787C11.3373 56.9407 10.5371 56.8445 9.12874 55.4344L7.94444 54.2166L9.83292 52.454C12.3936 50.0505 12.8737 49.6979 14.6341 48.7686C16.5226 47.7751 20.0755 46.365 20.7477 46.333C21.0357 46.333 22.06 46.0445 23.0202 45.7241C24.9727 45.019 26.4131 45.0831 27.6294 45.8843ZM10.4731 47.006C10.8252 47.6149 10.7291 47.8712 9.35279 49.4095L7.81641 51.1401L7.72038 50.0184C7.65637 49.1852 7.84842 48.5122 8.42456 47.6149C9.35279 46.2048 9.86492 46.0766 10.4731 47.006ZM64.6947 46.9098C65.3989 47.711 66.2311 49.7941 66.2311 50.7876C66.2311 51.4926 66.0391 51.3644 64.3426 49.5377C62.5822 47.6149 62.4862 47.4546 62.9983 46.9419C63.6705 46.2368 64.0866 46.2368 64.6947 46.9098ZM57.4289 55.3383C58.1331 55.6588 59.0613 56.2356 59.5094 56.5882L60.3096 57.2611H59.1894C57.877 57.2611 55.3804 56.6202 53.5879 55.819C52.3396 55.2742 52.3396 55.2422 53.1078 55.0178C54.5162 54.5692 56.1166 54.6973 57.4289 55.3383ZM21.0998 55.1781C21.0998 55.7549 15.3063 57.5175 14.3781 57.1971C14.186 57.133 14.8902 56.6202 15.9785 56.0433C17.4508 55.3063 18.4111 55.0178 19.5314 55.0178C20.3956 55.0178 21.0998 55.0819 21.0998 55.1781ZM38.4161 62.3567C38.8322 63.8309 38.5762 65.0487 37.4239 66.9395L36.8797 67.8368L35.8235 65.7217L34.7672 63.6065L35.3754 62.4849C35.6954 61.8439 36.2076 60.9146 36.4636 60.4018L36.9117 59.4724L37.4559 60.2095C37.776 60.6261 38.1921 61.5876 38.4161 62.3567ZM67.9916 62.4528C67.8635 63.0297 67.5755 63.8629 67.3514 64.3116C66.9033 65.1448 66.9353 65.1769 66.3912 63.4784C66.2631 63.0938 67.6075 61.4914 68.0876 61.4273C68.1516 61.4273 68.0876 61.908 67.9916 62.4528ZM7.11223 63.7668C7.01621 64.3436 6.88817 64.8564 6.82416 64.9205C6.69613 65.0487 6.24801 63.8629 5.92793 62.6131C5.70388 61.7157 5.73588 61.7157 6.50408 62.2285C7.17625 62.6772 7.27227 62.9336 7.11223 63.7668ZM26.093 64.7923C26.189 65.5935 26.4131 66.3306 26.5731 66.4267C26.7332 66.5229 26.8612 66.8433 26.8612 67.1638C26.8612 67.6125 26.2851 67.9009 24.4286 68.4778C23.1163 68.8623 21.7399 69.4712 21.4198 69.8238C20.6516 70.657 20.3316 72.0671 20.5876 73.4772C20.8757 74.9514 20.6516 74.8552 19.8514 73.1246C19.1473 71.6505 18.9552 68.9585 19.4353 67.9009C20.3956 65.946 20.8117 65.4012 21.4839 65.0487C22.3481 64.6 25.3248 63.4143 25.6449 63.3822C25.7729 63.3502 25.965 63.9911 26.093 64.7923ZM49.2668 63.8629C49.843 64.1514 50.9633 64.568 51.7955 64.7603C53.1398 65.1128 53.3319 65.3051 54.1321 66.9074C55.1883 68.9585 55.2844 70.7531 54.4201 72.708C53.812 74.1502 51.7635 76.6819 52.3076 75.368C53.0118 73.5733 53.1718 71.7787 52.6917 70.689C52.2116 69.5033 51.6995 69.1828 48.8828 68.2855C47.5704 67.8689 47.0263 67.5484 47.0263 67.1638C47.0263 66.8433 47.1543 66.5229 47.3144 66.3947C47.5064 66.2985 47.7305 65.5614 47.8585 64.7923C47.9545 63.9911 48.0826 63.3502 48.1466 63.3502C48.1786 63.3502 48.6907 63.5745 49.2668 63.8629ZM51.1873 71.362C51.1873 71.5543 50.8993 71.4261 50.5472 71.1377C50.1951 70.8172 49.907 70.5288 49.907 70.4647C49.907 70.4327 50.1951 70.5288 50.5472 70.7211C50.8993 70.9134 51.1873 71.2018 51.1873 71.362Z" fill="#E9E9E9"/>
<path d="M26.093 36.4944C25.7089 37.9686 26.285 39.6991 27.5653 40.981C28.6216 42.0386 28.9737 42.1988 30.318 42.1988C31.8544 42.1988 32.8787 41.7181 33.9989 40.4683C34.6071 39.7953 34.5751 39.7953 33.7749 39.6991C33.3268 39.635 32.3345 38.9941 31.5663 38.257C29.6779 36.3982 28.6536 35.7893 27.4053 35.7893C26.5091 35.7893 26.253 35.9496 26.093 36.4944Z" fill="#E9E9E9"/>
<path d="M34.447 43.7051C34.0309 44.1217 34.2229 46.333 34.735 46.8137C35.4712 47.5508 35.8233 47.1662 35.8233 45.5959C35.8233 44.0255 35.1191 43.0321 34.447 43.7051Z" fill="white"/>
<path d="M38.6083 44.0255C38.4803 44.1217 38.3843 44.9229 38.3843 45.7881C38.3843 46.9098 38.5123 47.3264 38.8644 47.3264C39.5046 47.3264 39.9847 46.3009 39.9847 44.9549C39.9847 44.0576 39.8566 43.8012 39.4085 43.8012C39.0885 43.8012 38.7044 43.8973 38.6083 44.0255Z" fill="white"/>
<path d="M41.0089 45.7882C40.4647 46.333 40.5287 48.6083 41.0729 48.6083C41.521 48.6083 41.9051 47.679 41.9051 46.4612C41.9051 45.5959 41.489 45.3074 41.0089 45.7882Z" fill="white"/>
<path d="M32.1105 46.1727C31.8544 46.8778 32.5906 48.6083 33.1667 48.6083C33.8709 48.6083 33.6148 45.9163 32.8467 45.7882C32.5586 45.7241 32.2065 45.9163 32.1105 46.1727Z" fill="white"/>
</svg>
