<svg xmlns="http://www.w3.org/2000/svg" width="96" height="96" fill="none">
  <path fill="#e9e9e9" d="M15.41 83.352c0 1.66 1.34 3 3 3h26.812v-35.25H15.409zm36.187 3h26.812c1.66 0 3-1.34 3-3v-32.25H51.597zm31.312-57.75H69.072a12.9 12.9 0 0 0 2.025-6.937c0-7.135-5.803-12.938-12.938-12.938a12.92 12.92 0 0 0-9.75 4.444 12.92 12.92 0 0 0-9.75-4.444c-7.134 0-12.937 5.803-12.937 12.938 0 2.55.74 4.931 2.025 6.937H13.909c-1.66 0-3 1.34-3 3v13.125h34.313V28.602h6.375v16.125h34.312V31.602c0-1.66-1.34-3-3-3m-37.687-.375h-6.563a6.57 6.57 0 0 1-6.562-6.562 6.57 6.57 0 0 1 6.562-6.563 6.57 6.57 0 0 1 6.563 6.563zm12.937 0h-6.562v-6.562a6.57 6.57 0 0 1 6.562-6.563 6.57 6.57 0 0 1 6.563 6.563 6.57 6.57 0 0 1-6.563 6.562"/>
</svg>
