<svg xmlns="http://www.w3.org/2000/svg" width="95" height="95" fill="none">
  <path fill="#c24a1c" d="M34.366.233c-.51.111-.972.27-1.036.35-.048.095-.43.286-.845.445-.43.158-.765.333-.765.397 0 .063-.16.19-.35.286-.431.19-1.069.699-1.866 1.461-.829.795-2.566 2.94-2.566 3.146 0 .111-.064.19-.128.19-.08 0-.446.477-.844 1.065-.383.604-.83 1.223-.973 1.382-.16.175-.287.413-.287.525a.34.34 0 0 1-.223.301c-.111.048-.35.366-.51.7-.175.349-.35.635-.414.635s-.24.222-.367.492c-.143.255-.366.604-.494.747s-.462.556-.717.906c-1.036 1.382-1.977 2.383-3.555 3.813-.94.842-3.443 2.224-4.351 2.399-.287.047-.526.158-.526.222s-.734.206-1.626.318c-1.307.174-2.009.174-3.395.016-.957-.112-1.786-.239-1.833-.318-.048-.064-.43-.207-.877-.334-1.594-.413-3.666-1.557-5.133-2.828-.557-.476-.685-.444-.685.143 0 .525.319 1.748.478 1.89.048.049.191.398.319.78.127.38.303.778.398.873.08.096.271.381.399.652.335.683 1.69 2.176 2.566 2.827 1.164.858 2.694 1.653 3.89 2.002.35.111.78.27.956.35.43.19 2.534.62 3.092.62.24 0 .494.063.574.142.24.239 4.24.493 7.476.493 3.188 0 7.268-.27 7.507-.493.08-.08.335-.143.558-.143.622 0 3.395-.492 3.586-.635.096-.064.702-.239 1.355-.397.654-.16 1.228-.334 1.275-.382.048-.063.399-.206.797-.333a10 10 0 0 0 1.276-.477c1.307-.635 2.98-1.51 3.506-1.859 1.642-1.08 3.539-2.748 4.463-3.908.303-.397.813-.842 1.116-1 .303-.16.606-.366.67-.446.143-.206 2.343-.206 2.486 0 .064.08.367.286.67.445s.813.604 1.116 1.001c.557.7 1.976 2.065 2.757 2.67.24.174.59.444.781.587.733.556 1.514 1.033 2.678 1.636 1.96 1.001 2.28 1.128 3.076 1.367.415.11.75.254.75.317 0 .048.59.223 1.323.382.717.159 1.386.35 1.482.429.096.063.956.238 1.913.38.956.144 1.88.319 2.056.398.526.223 4.4.46 7.475.46 3.188 0 7.269-.27 7.508-.492.08-.08.335-.143.574-.143.558 0 2.662-.429 3.092-.62.175-.079.606-.238.957-.349.924-.27 2.63-1.08 2.63-1.239 0-.08.175-.19.382-.238s.574-.255.813-.445c.94-.794 1.785-1.652 1.88-1.922.065-.143.176-.27.256-.27.095 0 .287-.27.446-.604.144-.318.35-.668.447-.763.095-.095.27-.492.398-.874.127-.38.271-.73.319-.778.16-.143.478-1.366.478-1.89 0-.588-.127-.62-.685-.144-1.562 1.35-3.443 2.383-5.133 2.828-.43.127-.829.27-.877.334-.048.08-.876.206-1.833.318-1.386.159-2.088.159-3.379-.016-.908-.112-1.642-.255-1.642-.318 0-.064-.239-.175-.51-.222-.972-.175-3.793-1.748-4.24-2.352-.111-.159-.287-.286-.366-.286-.255 0-2.28-2.192-3.316-3.574-.255-.35-.59-.763-.717-.906-.128-.143-.35-.492-.494-.747-.128-.27-.303-.492-.383-.492s-.175-.127-.239-.286c-.127-.381-.462-.89-.685-1.033a.45.45 0 0 1-.207-.333c0-.112-.128-.334-.287-.509-.144-.159-.59-.778-.973-1.382-.398-.588-.765-1.064-.844-1.064-.064 0-.128-.08-.128-.191 0-.095-.446-.715-.988-1.382-1.307-1.573-2.28-2.51-3.268-3.146-.239-.143-.478-.318-.526-.381-.127-.159-1.148-.62-1.37-.62a.28.28 0 0 1-.256-.174c-.207-.604-5.483-.842-7.699-.35-.653.143-1.195.302-1.195.365 0 .064-.335.239-.75.398-.43.158-.828.38-.892.508-.064.111-.207.207-.319.207-.111 0-.398.174-.653.397-.415.365-1.307.715-1.817.715-.112 0-.335.095-.51.19-.24.16-.399.16-.606.032-.16-.111-.59-.238-.956-.302a2.9 2.9 0 0 1-1.18-.492c-.287-.207-.685-.445-.876-.525-.208-.095-.367-.238-.367-.333 0-.08-.08-.16-.16-.16-.095 0-.621-.206-1.163-.46S41.14.265 40.678.17c-1.116-.239-5.133-.191-6.312.063"/>
  <path fill="#c24a1c" d="M47.022 20.156c0 .238-3.188 3.352-3.905 3.813-.351.222-.702.492-.765.603a.45.45 0 0 1-.335.207c-.112 0-.335.127-.51.286-.176.159-.606.429-.988.588-.367.159-.67.35-.67.413s-.35.238-.797.397c-.43.159-.797.334-.797.397 0 .048-.398.223-.877.381-.478.143-.876.318-.876.382 0 .063-.542.238-1.196.413-.653.159-1.195.35-1.195.397 0 .064-.67.254-1.467.397-.813.159-1.514.35-1.562.413-.048.064-1.084.239-2.311.382-1.227.142-2.359.333-2.518.413-.144.079-1.706.19-3.46.254-2.82.08-3.187.127-3.123.35.047.142.207.73.35 1.318.144.604.319 1.08.383 1.08s.191.286.303.652c.19.62 1.864 3.956 2.072 4.114.048.048.223.318.398.62.16.302.415.667.558.826s.414.493.606.73c.813 1.018 2.215 2.432 2.39 2.432.112 0 .256.095.32.222.159.286 1.976 1.525 2.247 1.525.096 0 .191.064.191.16 0 .079.335.253.765.38.415.127.973.334 1.228.461 1.147.572 3.873.715 4.75.238.542-.285 1.37-1.191 1.482-1.62.048-.223.144-.413.207-.413.064 0 .24-.238.383-.54.239-.525.67-1.112 1.243-1.668.43-.445 1.323-1.128 1.45-1.128.08 0 .479-.16.893-.366.733-.334.893-.35 5.611-.35s4.878.017 5.61.35c.415.207.814.366.893.366.064 0 .367.19.67.428 1.084.874 1.514 1.414 2.295 2.828.59 1.065 1.227 1.812 1.833 2.13.877.476 3.491.301 4.878-.303.35-.158.908-.365 1.243-.476.319-.096.59-.254.59-.334s.095-.143.207-.143c.175 0 1.61-.905 2.248-1.43.78-.651 2.327-2.16 2.327-2.287 0-.08.16-.302.366-.509.622-.651.861-.953 1.164-1.509.175-.302.35-.572.398-.62.064-.047.399-.651.766-1.35.35-.7.717-1.35.796-1.446.064-.08.255-.556.415-1.032.16-.461.335-.89.414-.938.064-.047.24-.54.383-1.112s.287-1.144.335-1.287c.063-.222-.32-.27-3.157-.35-1.928-.063-3.251-.174-3.283-.27-.032-.079-.303-.158-.59-.158-.813 0-4.288-.493-4.383-.636-.048-.063-.75-.238-1.546-.397-.813-.143-1.483-.333-1.483-.397 0-.048-.542-.238-1.195-.397-.654-.175-1.196-.35-1.196-.413 0-.064-.382-.239-.828-.398-.463-.142-.877-.317-.925-.365-.048-.063-.398-.238-.797-.413-.398-.175-.75-.35-.797-.413-.048-.048-.367-.222-.717-.397-.35-.159-.781-.413-.94-.572-.176-.159-.4-.286-.51-.286a.45.45 0 0 1-.336-.207c-.063-.11-.414-.38-.765-.603-.7-.461-3.905-3.575-3.905-3.813 0-.08-.207-.143-.478-.143-.255 0-.478.063-.478.143"/>
  <path fill="#c24a1c" d="M11.477 45.257c0 10.28.047 15.586.159 15.586.096 0 .16.38.16.826 0 .969.446 3.654.621 3.78.064.049.24.557.399 1.145.159.604.334 1.08.398 1.08s.207.318.319.73c.111.398.319.811.43.938.128.112.223.27.223.318 0 .064.223.429.479.826.27.381.478.73.478.779 0 .047.382.556.86 1.144 1.196 1.493 2.535 2.827 5.5 5.433.637.572 1.434 1.27 1.753 1.557.685.62.685.635 2.327 1.954.701.556 1.355 1.08 1.45 1.176.112.079.4.317.638.508.255.19.83.651 1.275 1 .463.35.893.636.989.636.08 0 .19.112.255.239.047.127.27.317.494.397s.398.222.398.302.128.19.287.238c.144.048.526.302.829.572.303.254.606.477.654.477.047 0 .302.174.557.397.255.222.542.397.654.397s.255.095.319.19c.064.112.382.35.685.509.303.175.702.445.86.604.176.158.4.286.511.286s.27.095.335.206c.063.111.398.334.733.509.319.174.59.35.59.413 0 .047.287.222.637.38.35.16.638.335.638.398 0 .08.287.238.637.381s.638.318.638.382c0 .063.303.254.685.429.367.158.702.333.75.397.047.047.653.413 1.354.794s1.307.747 1.355.81c.192.27 1.706.62 2.71.62s2.519-.35 2.71-.62c.048-.063.653-.429 1.355-.81.701-.381 1.307-.746 1.355-.794.047-.064.382-.239.765-.397.366-.175.67-.366.67-.43 0-.063.286-.238.637-.38.35-.144.637-.303.637-.382 0-.063.287-.238.638-.397.35-.159.637-.334.637-.381 0-.064.271-.239.606-.413.319-.175.622-.35.67-.413.047-.048.318-.223.605-.382.271-.175.51-.35.51-.413 0-.047.287-.222.638-.381.35-.159.638-.35.638-.413 0-.064.255-.254.557-.397s.558-.318.558-.382c0-.08.128-.175.287-.222.144-.048.526-.302.83-.572.302-.27.684-.524.844-.572.143-.048.27-.159.27-.238 0-.08.176-.223.4-.302.223-.08.446-.27.494-.397.063-.127.175-.239.254-.239.096 0 .526-.286.989-.635.446-.35 1.02-.81 1.275-1.001.239-.19.526-.429.638-.508.095-.096.749-.62 1.45-1.176 1.642-1.319 1.642-1.335 2.327-1.954.319-.286 1.116-.985 1.754-1.557 4.176-3.686 5.817-5.497 7.013-7.69.191-.349.43-.714.542-.826.112-.11.303-.524.414-.921.112-.413.255-.73.32-.73.063 0 .238-.477.398-1.081.159-.588.334-1.096.398-1.144.16-.127.622-2.86.622-3.765 0-.445.08-.874.16-.922.11-.063.159-5.433.159-15.601v-15.49l-1.228.111c-.685.064-1.307.175-1.403.255-.08.079-.573.142-1.115.142-.526 0-1.036.064-1.116.128-.096.063-.287.635-.462 1.27-.16.652-.383 1.367-.51 1.59-.128.238-.224.523-.224.619 0 .111-.254.73-.557 1.382s-.558 1.255-.558 1.35c0 .08-.064.175-.144.207-.063.016-.287.365-.478.763-.382.794-.478.969-1.291 2.224-.303.476-.638.937-.75 1-.11.064-.206.207-.206.318 0 .207-.112.35-2.104 2.336-.83.826-1.706 1.652-1.945 1.827s-.558.429-.701.556c-.16.127-.558.381-.909.556-.35.175-.67.365-.717.429-.048.047-.399.222-.797.381-.399.159-.765.35-.813.413-.048.08-.51.254-1.036.381-.51.144-1.02.318-1.1.382-.096.08-.797.222-1.562.333-1.1.16-1.626.16-2.503 0-.621-.11-1.115-.254-1.115-.317 0-.064-.287-.223-.622-.334-.606-.19-2.407-1.7-2.407-2.002 0-.095-.128-.302-.287-.476-.16-.16-.414-.604-.558-.97-.35-.89-.956-1.556-1.785-1.954-.606-.301-.972-.317-5.02-.317-4.05 0-4.416.016-5.022.317-.829.398-1.434 1.065-1.785 1.955-.144.365-.399.81-.558.969-.16.174-.287.381-.287.444 0 .318-1.801 1.843-2.39 2.034-.352.111-.639.27-.639.334 0 .063-.494.206-1.115.317-.877.16-1.403.16-2.503 0-.765-.11-1.434-.254-1.482-.317-.048-.064-.558-.239-1.148-.398-.605-.158-1.084-.333-1.084-.397 0-.063-.35-.238-.797-.397-.43-.159-.797-.35-.797-.429s-.08-.143-.175-.143c-.191 0-1.77-1-2.359-1.51-.367-.3-2.917-2.827-3.539-3.494-.175-.19-.303-.413-.303-.509 0-.11-.095-.254-.207-.317-.111-.064-.446-.525-.749-1.001-.813-1.255-.908-1.43-1.291-2.224-.191-.398-.414-.747-.478-.763a.25.25 0 0 1-.144-.207c0-.095-.255-.699-.558-1.35-.302-.651-.557-1.27-.557-1.382 0-.096-.096-.381-.223-.62-.128-.222-.351-.937-.51-1.589-.176-.635-.367-1.207-.463-1.27-.08-.064-.542-.128-1.004-.128s-.972-.063-1.116-.142c-.143-.08-.829-.191-1.498-.255l-1.243-.11z"/>
</svg>
