<svg xmlns="http://www.w3.org/2000/svg" width="88" height="97" fill="none">
  <path fill="#c24a1c" d="M15.487.09c-.165.046-.703.137-1.197.228-1.227.243-3.037 1.046-4.294 1.91-.39.273-.763.5-.808.5-.12 0-.284.167-1.706 1.577-.539.545-1.092 1.136-1.227 1.333-.15.197-.494.667-.793 1.076-.284.395-.523.773-.523.85 0 .075-.105.211-.225.318-.135.106-.344.44-.479.742-.134.303-.299.576-.344.622-.15.12-1.346 2.682-1.346 2.864 0 .091-.06.167-.135.167-.06 0-.21.318-.314.712-.105.41-.315 1-.464 1.334a10.5 10.5 0 0 0-.449 1.592c-.105.545-.224 1.015-.284 1.06-.15.107-.434 2.047-.554 3.653-.045.743-.15 1.395-.224 1.44-.18.121-.15 6.381.03 6.502.09.046.15.41.15.804 0 1.03.433 4.744.598 5.108.06.166.24.985.359 1.803.134.834.299 1.577.359 1.668.075.09.254.682.404 1.303s.314 1.167.374 1.213c.06.045.224.53.374 1.09.15.577.314 1.032.374 1.032s.224.409.374.909.33.91.404.91c.06 0 .12.106.12.227 0 .136.194.667.434 1.182s.508 1.197.628 1.5c.105.319.24.576.284.576.045 0 .21.38.374.834.15.455.33.834.39.834s.224.348.374.758c.15.409.314.757.374.757s.194.258.284.561c.105.319.27.712.359.88.105.166.314.62.464 1.015.15.409.329.727.389.727.075 0 .134.076.134.152 0 .09.21.621.464 1.182 1.018 2.228 1.152 2.546 1.332 3.138.105.333.24.636.3.682.059.045.224.454.373.909.15.455.315.864.36.91.06.045.239.515.388 1.06.15.546.33 1.016.374 1.061.06.046.225.592.375 1.213s.314 1.167.389 1.213c.06.045.224.818.374 1.742.15.91.329 1.698.374 1.743.164.122.434 3.593.434 5.442 0 1.516.03 1.682.269 1.682s2.124-1.773 2.124-2c0-.061.225-.334.494-.607.27-.273.718-.833 1.003-1.228.284-.394.703-.97.942-1.273.225-.303.404-.59.404-.666 0-.061.09-.213.21-.319.105-.121.359-.485.538-.818.18-.319.48-.864.689-1.198.194-.333.508-.91.673-1.288.18-.379.374-.712.434-.758.06-.045.224-.394.374-.803.15-.394.314-.713.36-.713.059 0 .224-.363.388-.803.15-.424.36-.924.464-1.091.09-.167.254-.576.359-.91.105-.333.284-.742.39-.909.104-.167.268-.621.373-1.03.09-.395.225-.713.284-.713.165 0 .494-1.47.404-1.713-.044-.106-.344-.288-.688-.409-.344-.106-.613-.258-.613-.333s-.195-.213-.42-.319a4.4 4.4 0 0 1-.628-.363 72 72 0 0 0-.972-.819c-.703-.606-1.87-1.88-2.29-2.5-.748-1.153-1.226-1.971-1.226-2.108 0-.09-.12-.394-.285-.682-.15-.288-.359-.909-.463-1.364-.105-.454-.24-.91-.3-.985-.194-.258-.449-2.622-.449-4.138 0-1.5.27-4.138.434-4.274.06-.045.225-.606.374-1.258.165-.636.33-1.167.374-1.167.06 0 .195-.303.3-.697.104-.38.284-.773.374-.864.09-.106.299-.425.449-.697.374-.682 1.915-2.213 2.483-2.47.255-.107.45-.243.45-.304 0-.06.388-.227.867-.379.464-.136.898-.333.958-.424.15-.213 3.576-.197 4.024.03.195.09.659.273 1.003.41 1.436.545 3.112 1.924 3.71 3.06.15.289.33.516.375.516.06 0 .224.364.374.788.134.44.299.834.359.88.06.045.224.681.359 1.44.15.742.314 1.424.389 1.515.06.076.24.727.374 1.44.135.712.3 1.349.36 1.44.059.076.238.727.388 1.44.15.712.33 1.318.39 1.364.179.136.433 2.076.433 3.41 0 1.38-.254 3.259-.434 3.259-.06 0-.224.44-.389.985-.15.546-.33.985-.389.985-.06 0-.224.5-.359 1.092-.15.606-.314 1.136-.374 1.182-.135.09-.599 2.137-.599 2.637 0 .227-.06.394-.134.394-.24 0-.524 3.501-.524 6.29.015 2.562.284 5.82.494 5.987.06.045.224.728.374 1.516s.314 1.5.374 1.591c.06.076.24.606.374 1.167.15.576.314 1.03.374 1.03.045 0 .225.41.374.91.165.5.33.91.39.91.044 0 .209.348.358.758.15.424.315.757.374.757.045 0 .21.303.36.683.164.378.343.681.418.681s.135.091.135.182c.015.107.21.47.449.804.24.333.509.758.598.94.075.197.21.348.3.348.074 0 .15.076.15.182 0 .485 4.129 4.91 5.775 6.184.374.288.867.682 1.077.864.224.197.449.348.509.348s.194.091.299.213c.12.106.449.318.718.47.284.151.554.318.599.378.044.046.284.213.523.334.255.136.973.515 1.616.864.644.333 1.437.697 1.766.788.314.106.583.227.583.288s.42.227.943.379c.509.136 1.003.318 1.077.379.09.076.659.242 1.272.379.614.136 1.227.303 1.377.379.134.075 1.047.257 2.02.394 1.331.197 2.842.272 6.179.272 4.923.016 5.551-.06 7.257-.909 1.586-.788 1.885-.97 1.975-1.212.045-.122.164-.213.269-.213.24 0 2.02-1.94 2.02-2.197 0-.106.09-.228.194-.273s.285-.349.404-.697c.105-.349.255-.622.315-.622s.24-.394.374-.879c.134-.47.329-1.03.419-1.228.21-.47.21-4.85-.015-4.986-.075-.06-.24-.682-.344-1.395-.315-2.152-.674-2.637-2.32-3.107a12 12 0 0 1-1.047-.364c-.075-.06-.479-.242-.883-.394-1.286-.47-2.11-1.318-2.543-2.591-.15-.41-.33-.864-.404-1-.18-.35-.18-1.577 0-1.91.09-.137.269-.637.404-1.092.134-.455.299-.864.359-.91.06-.045.254-.378.434-.757.613-1.304.793-1.546 2.08-2.834 1.57-1.561 1.735-1.713 1.915-1.713.09 0 .284-.121.448-.273.165-.151.614-.41 1.003-.56.389-.152.703-.334.703-.395 0-.076.135-.136.285-.136.418 0 .493-.197.374-1.061l-.105-.758h-.778c-.988 0-3.247.303-3.442.455-.074.075-.553.227-1.032.363-.494.122-.928.288-.973.349-.044.076-.374.258-.718.41-.359.166-.643.348-.643.424 0 .06-.075.12-.165.12-.463 0-3.441 2.866-4.324 4.154-.12.182-.329.455-.479.606-.15.167-.269.349-.269.394 0 .06-.15.273-.33.485a6 6 0 0 0-.642.894c-.48.804-.584.94-1.048 1.425-1.212 1.258-2.888 1.728-4.728 1.334-.613-.121-1.167-.273-1.257-.333-.075-.076-.613-.243-1.197-.394-.568-.167-1.077-.334-1.122-.38-.045-.06-.584-.227-1.197-.378-.613-.152-1.152-.319-1.197-.38-.045-.045-.538-.211-1.122-.378-.569-.152-1.107-.319-1.197-.38-.075-.06-.643-.226-1.242-.378-.598-.136-1.107-.318-1.152-.379-.045-.06-.434-.212-.853-.303-.913-.212-2.439-.91-3.322-1.5-1.017-.668-2.558-2.335-3.022-3.229-.135-.273-.3-.53-.359-.576-.06-.045-.224-.455-.374-.91-.15-.454-.314-.909-.39-.984-.179-.258-.433-3.123-.433-5.063 0-2.198.27-5.956.419-6.063.075-.06.24-.682.389-1.424.15-.728.33-1.319.389-1.319.06 0 .165-.182.224-.424.105-.425 1.123-2.622 1.287-2.759.045-.045.18-.242.285-.455.239-.47 1.047-1.53 3.994-5.244 1.257-1.591 2.29-2.97 2.29-3.062 0-.09.06-.181.134-.212.27-.09 1.033-1.758 1.227-2.637.105-.485.255-.985.33-1.091.209-.258.194-3.729 0-4.168-.09-.182-.285-.789-.42-1.364-.15-.561-.299-1.016-.359-1.016s-.194-.243-.299-.53-.27-.622-.359-.728c-.105-.106-.314-.455-.479-.788-.164-.334-.389-.697-.479-.803-.104-.107-.194-.273-.194-.35 0-.075-.15-.378-.33-.666l-.343-.53H19.018l-.314-.334a4.3 4.3 0 0 1-.524-.758c-.18-.379-.164-.485.12-1.03.18-.334.434-.652.553-.713.12-.076 11.836-.151 26.02-.197 20.454-.06 25.81-.121 25.87-.273.03-.09.224-.182.419-.182.479 0 2.483-.454 2.678-.606.09-.06.494-.227.898-.348.733-.228 3.426-1.577 3.89-1.956.09-.06.584-.44 1.122-.833 1.092-.819 3.008-2.698 3.666-3.608.254-.333.569-.742.718-.894.135-.167.254-.348.254-.41 0-.06.09-.211.195-.317s.3-.41.434-.652c.973-1.864 1.362-2.683 1.571-3.41.15-.455.314-.864.36-.91.119-.09.583-2.258.583-2.713 0-.167.06-.318.134-.348.06-.03.15-.44.195-.925L87.935 0 51.86.015C32.02.03 15.652.061 15.487.091"/>
  <path fill="#c24a1c" d="M74.424 21.129c-.165.12-.898.333-1.631.47-.748.136-1.467.318-1.616.394-.524.288-7.152.47-13.451.363-6.18-.09-6.255-.09-6.255.213 0 .166.105.394.225.53.12.121.224.258.224.303 0 .046.195.41.434.803.24.41.524.986.629 1.289.104.318.239.576.299.576s.224.53.374 1.167c.15.652.344 1.228.434 1.288.21.152.21 5.093-.015 5.245-.09.06-.24.515-.33 1.015-.299 1.47-1.66 4.032-2.902 5.441-.15.167-.27.349-.27.394 0 .06-.149.288-.328.5-.195.213-.464.561-.599.743L48.404 43.5c-.524.712-1.107 1.425-1.272 1.592-.164.181-.299.394-.299.485 0 .106-.09.242-.194.303-.12.06-.33.363-.494.651-.15.288-.36.576-.464.652-.09.06-.254.349-.344.637s-.225.53-.3.53c-.06 0-.239.41-.389.91-.164.5-.329.91-.389.91s-.209.53-.344 1.166c-.134.652-.329 1.35-.419 1.546-.12.258-.18 1.667-.18 4.699 0 3.85.03 4.38.255 4.79.15.242.27.56.27.681 0 .652 2.244 3.335 2.768 3.335.12 0 .299.09.419.212.104.121.628.334 1.167.485.523.152.987.318 1.032.364.045.06.584.227 1.197.379.614.151 1.197.318 1.272.379.09.075.583.242 1.122.379.539.136 1.182.333 1.421.44.255.12.823.287 1.272.393s.853.243.898.303c.045.061.584.228 1.197.38.613.15 1.152.318 1.197.378.15.197 1.332.455 2.08.455.703 0 .838-.06 1.301-.546.285-.303.51-.651.51-.773 0-.106.089-.242.209-.288a.6.6 0 0 0 .299-.333c.09-.288.344-.697.688-1.107.12-.151.39-.485.599-.742.478-.607 3.59-3.76 4.19-4.244.253-.212.583-.485.732-.622.15-.136.494-.379.778-.53.285-.167.539-.318.584-.364.21-.227 2.124-1.076 2.768-1.228.419-.106.778-.227.823-.288.164-.242 2.678-.485 5.88-.56 1.87-.046 3.396-.137 3.396-.197 0-.061.18-.182.39-.288.224-.091.703-.425 1.062-.728.598-.5.658-.606.583-1.015-.06-.243-.15-.485-.21-.546-.06-.045-.239-.273-.373-.5-.284-.44-.404-.591-1.362-1.758a103 103 0 0 0-2.558-2.971 6 6 0 0 1-.45-.576 43 43 0 0 0-.747-1.091c-1.033-1.5-2.47-4.017-2.47-4.335 0-.091-.119-.394-.283-.652-.15-.258-.36-.788-.48-1.197-.104-.394-.239-.713-.299-.713-.044 0-.209-.56-.359-1.258-.15-.682-.329-1.303-.404-1.394-.15-.182-.15-.728 0-.91.075-.09.21-.424.3-.757.224-.773.404-1.016 2.17-2.865 1.376-1.44 1.45-1.561 1.45-2.167 0-.364-.06-.652-.12-.652-.059 0-.239-.485-.388-1.061-.15-.591-.33-1.061-.404-1.061s-.135-.076-.135-.152c0-.09-.24-.682-.523-1.303-.285-.622-.524-1.198-.524-1.288 0-.076-.135-.44-.284-.789-.165-.348-.374-1.076-.48-1.622-.104-.545-.224-1.015-.269-1.06-.06-.046-.209-.667-.359-1.38-.344-1.728-.523-2.107-1.002-2.107-.21 0-.524.091-.688.213M25.213 33.906c-.24.03-.734.197-1.078.364-.359.151-.703.288-.778.288s-.479.333-.883.727c-.823.819-1.54 2.122-1.825 3.38-.105.455-.24.894-.314.97-.18.243-.434 2.546-.434 3.971 0 1.319.254 3.517.434 3.759.06.076.24.606.374 1.167.15.576.329 1.03.389 1.03s.194.198.27.456c.164.439.747 1.333 1.226 1.833.12.137.33.38.464.53.539.638 1.96 1.699 2.544 1.91.239.077.433.213.433.274 0 .06.45.242 1.018.394.553.151 1.047.333 1.092.409s.868.166 1.81.212l1.706.091.18-.819c.105-.454.284-1 .389-1.227.12-.212.284-.652.389-.985.105-.319.329-.88.494-1.258.374-.864.508-2.926.269-4.335-.105-.576-.24-1.107-.314-1.198-.06-.075-.24-.727-.374-1.424-.135-.713-.315-1.395-.374-1.516-.075-.136-.24-.788-.39-1.455-.134-.667-.284-1.288-.343-1.364-.06-.091-.24-.743-.39-1.486-.134-.727-.314-1.318-.389-1.318-.074 0-.134-.091-.134-.212 0-.395-.434-1.092-1.122-1.774-.599-.59-.764-.712-1.347-.91-.33-.12-.628-.257-.673-.302-.105-.122-1.766-.258-2.32-.182M28.13 59.081c-.075.303-.15.652-.15.743 0 .106-.06.197-.134.197-.06 0-.21.318-.314.712-.105.41-.27.864-.375 1.031-.09.167-.299.682-.448 1.137s-.314.864-.374.91c-.06.045-.225.439-.374.863-.165.44-.345.803-.404.803s-.12.076-.12.167c0 .167-1.227 2.744-1.362 2.865-.045.045-.21.348-.374.682-.15.333-.344.682-.449.788-.09.091-.254.379-.359.637-.105.257-.24.47-.299.47-.06 0-.224.272-.374.59-.15.334-.36.637-.464.683-.12.045-.21.166-.21.273 0 .106-.209.439-.448.727s-.45.576-.45.621-.164.288-.373.53c-.21.243-.524.637-.703.865-.434.53-3.412 3.546-3.965 4.001-1.197.985-1.78 1.41-1.945 1.41-.105 0-.21.318-.27.712-.24 1.895-.404 2.88-.524 3.153-.074.166-.254.849-.389 1.516-.134.666-.299 1.273-.359 1.364-.06.075-.224.651-.374 1.258-.164.59-.329 1.09-.389 1.09-.045 0-.224.44-.374.986s-.329.985-.389.985-.224.38-.359.834c-.15.455-.314.834-.374.834s-.224.333-.374.757c-.15.41-.314.758-.36.758-.059 0-.224.288-.388.637-.15.364-.36.742-.464.849s-.194.272-.194.348c0 .167 38.887.182 39.156.015.224-.151.389-.848.284-1.197-.06-.167-.329-.41-.628-.546a9 9 0 0 1-.703-.409c-.105-.09-.614-.44-1.152-.803a24 24 0 0 1-1.227-.864 19 19 0 0 0-.733-.606c-.27-.213-.794-.667-1.168-1.031-.374-.349-.852-.758-1.062-.88-.21-.136-.658-.59-1.017-1.03a44 44 0 0 0-1.197-1.41c-1.108-1.273-1.302-1.485-1.452-1.727-.404-.667-1.077-1.607-1.301-1.865-.15-.166-.27-.379-.27-.485a.46.46 0 0 0-.18-.318c-.104-.06-.328-.394-.493-.727-.165-.334-.33-.637-.374-.682-.15-.122-1.347-2.683-1.347-2.865 0-.091-.06-.167-.12-.167-.074 0-.254-.41-.403-.91s-.315-.909-.374-.909c-.045 0-.21-.515-.375-1.136-.15-.622-.314-1.137-.374-1.137s-.224-.667-.374-1.486c-.15-.803-.314-1.545-.374-1.621-.479-.667-.688-8.246-.314-11.49.105-.984.18-1.803.15-1.833s-.584-.091-1.212-.137l-1.152-.075zM79.42 67.25c-.149.031-.269.122-.269.198s-.224.197-.493.288c-.928.318-3.038 2.334-3.502 3.35a1.8 1.8 0 0 1-.284.409c-.09.106-.27.485-.374.864-.105.394-.254.697-.314.697-.24 0-.105 1.213.195 1.728.344.59 1.42 1.197 2.453 1.38.33.06.808.242 1.063.393.628.38.867.364 1.182-.106.239-.379.239-.455-.015-1.334-.135-.515-.314-.985-.39-1.06-.224-.273-.12-1.547.18-2.183.165-.334.3-.682.3-.773 0-.182 1.331-1.577 1.705-1.789.284-.151.284-.197-.15-1.046-.553-1.136-.628-1.197-1.286-1.015"/>
</svg>
