<svg xmlns="http://www.w3.org/2000/svg" width="368" height="649" fill="none">
  <path fill="#fff" fill-opacity=".04" d="M208.636 10.554c-60.926 44.666-66.28 49.005-69.339 57.427-4.333 12.252-10.452 13.273-21.413 3.829-6.883-6.126-11.217-7.912-19.63-7.912-13.51 0-29.06 9.954-31.61 19.908-.764 3.829-5.353 12.507-10.196 19.398-6.628 9.699-8.413 14.804-8.413 24.502 0 14.549 4.844 27.055 13.766 35.478 8.667 8.168 28.806 9.189 36.964 1.787 6.373-5.615 6.373-4.339 2.804 16.08-1.275 7.912-3.06 19.653-4.079 26.289l-1.274 12.251H83.724c-23.198 0-40.787 17.356-40.787 40.583 0 13.272 6.883 31.138 17.335 45.176l5.863 8.168-9.687 1.786c-11.727 2.042-30.59 12.507-38.493 21.44-25.238 28.331-23.708 81.675 3.569 121.237 2.294 3.318 2.804 8.678 1.784 15.825-1.53 11.485 2.04 28.841 9.177 44.41 5.099 11.486 6.628 13.528 22.433 29.608 19.884 20.419 39.258 23.737 55.573 9.954 5.863-5.36 7.393-8.933 8.412-20.419 1.275-15.569-1.784-21.695-10.961-21.695-3.059 0-8.667 2.808-11.981 6.381-4.08 3.829-8.158 5.87-10.452 4.849-4.334-1.531-13.766-22.971-11.472-25.523.765-.766 9.177.51 18.355 2.808 9.432 2.041 22.178 3.828 28.551 3.828h11.471l-4.588 8.168c-6.883 12.761-6.373 50.791 1.019 64.574 12.492 23.482 28.042 34.457 49.2 34.457 14.276 0 28.042-5.871 35.179-14.804 4.844-6.125 3.569-18.632-2.294-25.013-6.373-6.891-5.608-14.293.765-7.657 5.353 5.36 7.138 5.105 7.138-.766 0-6.125-6.883-14.548-16.06-19.142l-7.138-3.574 8.157-4.083c4.589-2.297 8.668-4.084 8.923-4.084 1.274 0 13 18.632 19.119 30.628l5.353 9.954-5.353 14.294c-6.373 17.1-6.628 19.653-1.275 33.18 4.334 11.996 20.649 24.247 31.865 24.247 8.667 0 20.139-11.485 20.139-20.163 0-3.573-2.039-10.21-4.589-14.293-4.333-7.657-4.333-7.657 2.295-14.038l6.628-6.636 6.373 6.891c6.118 6.891 6.118 7.147 1.529 13.017-15.295 20.164 9.942 42.369 31.865 27.821 15.296-9.955 20.649-28.587 13.511-48.75-5.863-17.101-5.098-21.695 7.138-40.838 11.471-17.356 11.471-17.611 18.609-14.293 3.824 1.787 9.942 4.594 13.511 6.126 5.863 2.552 5.353 2.807-5.098 2.807-12.746.255-23.963 7.657-26.767 17.356-1.53 5.36-.765 5.871 7.648 5.871 8.922 0 9.177 0 5.353 5.615-5.099 7.146-5.099 17.1-.255 23.992 7.903 11.741 32.375 17.356 48.18 11.23 10.452-3.828 25.492-19.142 32.12-32.415 8.667-17.1 10.197-44.411 3.059-58.959l-5.098-10.72h10.961c9.942 0 38.239-5.36 48.181-9.188 2.804-1.021 3.314 0 2.294 4.594-4.844 21.95-16.06 30.628-24.473 18.887-6.118-8.678-15.55-8.678-21.158-.255-3.569 5.615-3.824 7.912-1.02 18.122 6.628 23.481 29.061 30.883 51.239 16.59 27.022-17.101 48.69-58.449 44.357-84.738-1.275-7.912-.255-12.251 5.608-23.227 11.217-20.163 16.06-38.03 16.06-57.683 0-30.117-10.962-51.812-33.65-66.106-7.392-4.594-15.295-8.422-17.589-8.422-7.648 0-7.903-4.595-1.02-13.528 8.922-11.741 12.746-33.691 8.922-51.557-4.333-21.44-21.923-34.457-45.885-34.457-7.138 0-7.138-.255-9.942-22.461-1.785-12.251-4.079-27.055-5.354-32.925-4.333-18.122-3.059-33.436 2.55-39.051 5.353-5.36 12.746-6.892 12.746-2.553 0 1.532-2.805 7.147-6.373 12.762-7.648 11.996-8.413 25.524-1.785 31.394 6.373 5.871 28.041 5.615 35.434-.255 16.57-13.272 20.904-38.796 9.942-57.683-14.785-25.013-37.218-33.18-60.926-21.95-20.139 9.443-32.12 25.013-37.219 47.218-1.529 6.891-3.823 17.356-5.098 22.971l-2.294 10.21-.255-10.465c-.255-15.059-14.276-40.582-31.356-57.173-15.295-15.314-37.728-27.82-61.181-34.201-19.884-5.616-64.495-5.36-81.829.255-27.277 8.933-57.358 33.691-68.319 56.407l-5.354 10.72-7.392-7.912-7.393-7.913 6.628-11.996c6.883-13.272 14.275-21.695 25.237-29.607 9.942-7.402 36.199-25.524 50.474-35.223 11.727-7.912 17.08-17.1 7.648-13.272-2.549 1.021-9.942 3.829-16.825 6.381-6.628 2.297-12.746 5.105-13.765 5.87-5.099 5.36-5.354.511-.255-6.125 10.961-15.059 19.883-28.076 19.883-29.097 0-3.573-7.902 0-20.393 9.189M168.613 65.94c-8.157 9.698-15.04 17.356-15.55 17.1-1.275-1.02 5.353-16.59 7.138-16.59 1.019 0 6.373-4.084 11.726-8.933 5.608-4.85 10.197-8.933 10.707-8.933s-5.863 7.912-14.021 17.356m135.108 9.698c40.278 12.252 74.947 41.859 82.85 70.701 3.314 11.485 1.274 21.184-9.942 46.453-2.039 4.594-3.314 18.632-3.569 35.222-.255 19.653-1.275 28.331-3.569 29.607-2.804 1.787-2.549 3.318.765 8.423 4.079 6.381 4.079 6.381-2.294 5.36-10.962-2.297-18.61 1.276-33.395 15.825-9.177 9.188-16.315 14.037-20.394 14.037-8.922 0-7.647 4.084 4.589 12.762 11.981 8.933 28.806 10.465 39.003 3.574 8.922-5.871 16.57-19.143 16.825-29.353.254-6.891 1.019-5.615 2.804 5.36 4.078 24.758 4.843 23.227-12.746 30.373-22.179 9.189-33.65 19.909-33.65 31.905 0 27.82 37.728 70.7 79.026 90.098 12.236 5.87 38.748 10.975 56.337 10.975 39.513 0 66.025-25.524 66.025-63.554 0-25.268-16.06-51.302-31.355-51.302-8.413 0-7.138-4.084 2.549-7.912 12.236-4.594 34.159 9.954 44.101 29.352 2.549 4.849 3.824 14.804 3.824 28.076 0 17.356-1.02 22.971-7.138 35.733-10.452 21.95-29.826 40.837-52.769 52.068-17.844 8.422-20.648 9.188-43.336 9.188-19.629 0-28.296-1.531-45.886-7.146-11.981-4.084-23.453-8.423-25.492-10.21-2.04-1.531-6.883-9.188-10.962-16.845-8.157-16.591-12.746-22.972-16.57-22.972-5.608 0-5.098 8.423 2.04 23.993 9.687 21.184 9.942 35.733 1.019 53.599-3.569 7.147-9.177 15.825-12.491 19.398-11.726 12.506-24.217 36.243-24.217 46.453 0 11.23-2.04 11.996-8.413 3.063-7.647-10.21-5.863-20.675 8.668-50.537l13.256-28.076-3.06-15.059c-1.784-8.423-7.137-22.971-11.981-32.415-10.707-21.184-16.315-38.795-16.315-52.323 0-16.08-2.294-21.695-8.922-21.695-8.412 0-10.197 3.829-14.785 28.076-3.824 22.205-12.237 43.9-23.453 60.235-5.099 7.402-6.373 12.762-6.373 24.503 0 13.017 1.784 18.632 12.746 40.838 13.766 27.82 15.805 39.306 7.902 46.453-4.333 3.828-4.843 3.828-6.373.255-.764-2.297-1.529-5.871-1.529-7.913s-7.648-15.569-16.825-29.862c-29.571-45.177-32.375-58.959-18.864-86.525 6.883-14.038 7.393-16.08 4.079-19.653-3.569-3.318-4.589-2.808-9.687 3.573-6.628 8.168-14.786 23.737-14.786 27.821 0 3.063-5.608 5.87-31.865 15.569-14.785 5.616-22.688 6.892-44.611 7.147-26.002.255-27.277 0-46.141-8.933-29.57-14.549-47.925-35.988-58.122-68.148-3.569-11.486-3.569-30.373.255-41.348 6.628-19.398 25.747-35.733 42.317-36.244 11.216-.255 16.315 6.892 5.863 7.913-8.922 1.021-18.354 9.954-24.472 22.46-3.315 7.147-4.08 14.549-3.315 32.415.765 21.185 1.53 24.758 8.413 34.712 10.707 15.825 27.531 24.248 51.239 25.269 48.945 2.552 97.38-23.482 127.206-68.148 9.942-15.059 11.471-19.398 11.471-30.373 0-11.741-.764-13.783-8.922-20.164-4.843-3.828-16.06-10.209-24.727-13.783-14.021-5.615-16.06-7.401-15.296-12.761 3.059-24.503 5.354-37.775 8.158-43.901 2.804-5.615 2.804-8.167 0-13.272s-2.804-8.423-.255-16.846c2.549-8.678 2.549-13.272-1.02-27.31-4.333-18.377-7.647-28.841-12.236-38.54-13.766-28.842 25.747-81.165 72.653-95.969 15.04-4.594 30.59-4.594 46.14.255M107.432 98.1c10.707 4.594 18.864 10.975 16.57 13.017-.765 1.021-4.079-.765-6.883-3.573-4.079-4.084-8.667-5.36-18.1-5.36-11.726 0-15.295-1.787-10.961-5.87 2.55-2.808 10.452-2.042 19.374 1.786m384.166.51c3.824 2.298 8.923 7.913 11.472 12.252l4.334 7.912-6.883-8.422c-6.373-7.658-7.903-8.168-22.433-8.168-19.884 0-25.493 3.828-31.101 20.674-3.824 11.486-4.079 15.059-1.02 33.691 2.04 11.486 3.569 38.03 3.569 59.215v38.285l-8.412 17.101c-4.844 9.188-14.53 22.716-21.668 29.862l-13.001 13.017-3.314-9.699c-1.785-5.104-3.824-24.502-4.334-43.134-1.02-31.394-1.02-33.692 4.079-38.286 8.412-7.402 18.864-33.18 24.727-60.746 7.903-38.03 9.687-42.879 18.609-51.557 16.57-15.825 31.866-19.909 45.376-11.996M67.919 116.222c-1.53 3.573-3.314 5.87-3.824 5.36-1.274-1.276 3.824-11.741 5.609-11.741.764 0-.255 2.808-1.785 6.381m34.415 7.402c2.804 3.063 3.314 19.398.509 19.398-1.784 0-11.471-17.356-11.471-20.164 0-3.828 6.628-3.573 10.962.766M493.128 142c-2.804 7.401-6.628 3.318-6.628-7.402l.255-10.72 3.824 7.147c2.294 4.083 3.314 8.933 2.549 10.975m-406.854-5.615c0 9.188-3.314 14.037-6.374 9.188-2.294-3.573 1.02-17.867 4.08-17.867 1.274 0 2.293 3.829 2.293 8.679m53.278-.511c1.275 4.594 3.314 14.038 4.079 21.185 3.569 27.054 20.648 67.637 29.826 70.7 2.039.765 1.784 3.828-.51 10.72-1.785 5.36-2.549 13.017-1.53 16.845 1.275 7.402-2.549 51.047-5.098 53.344-2.04 2.042-21.414-18.121-27.787-29.096-11.726-19.909-14.785-33.692-14.53-66.362.255-16.845 1.529-36.754 3.059-44.411 1.275-7.401 2.549-19.142 2.549-25.778 0-17.356 5.354-21.185 9.942-7.147m17.335 21.695c-.765 2.552-1.275 1.021-1.275-3.063 0-4.339.51-6.125 1.275-4.594.51 1.787.51 5.36 0 7.657m254.411 20.419c-.765 5.36-2.804 10.72-4.333 12.251-2.04 1.787-2.295.511-1.02-3.828 1.02-3.574 2.549-8.934 3.314-12.252 2.294-9.443 4.079-6.381 2.039 3.829m-243.45 15.569c0 3.829-.509 3.829-2.549.511-3.314-5.105-3.314-8.423 0-6.381 1.53.765 2.549 3.573 2.549 5.87m328.084 41.859c6.883 3.318 13.511 16.59 13.511 26.799-.255 22.461-25.492 47.985-52.514 52.834-5.353 1.021-12.746 2.553-16.315 3.318l-6.373 1.532 6.628-7.402c14.531-16.59 25.492-39.562 29.316-61.001 3.314-18.888 5.353-21.951 13.001-20.164 4.079.766 9.687 2.552 12.746 4.084m-398.187 8.933c3.569 28.586 17.59 58.704 33.905 74.018l6.373 5.871-8.668-1.532c-32.63-6.125-66.024-39.051-66.024-65.34 0-12.251 13.255-24.503 27.276-24.758 4.844-.255 5.863 1.532 7.138 11.741m9.687 97.755c1.02 1.021-2.549 4.594-7.903 8.423l-10.196 6.636 2.804-10.209c2.04-8.678 3.314-9.955 7.902-8.423 2.804.766 6.373 2.552 7.393 3.573m373.97 13.017c3.314 5.871 3.059 6.126-1.785 1.532-2.804-2.298-6.118-4.339-7.393-4.339s-5.098-2.298-8.667-4.85l-6.118-4.849 8.667-2.298c7.903-2.041 9.177-1.786 10.452 3.063.765 3.063 3.059 8.168 4.844 11.741m-71.633-6.381c23.452 6.892 25.492 7.657 44.611 16.591 13.766 6.125 46.141 31.138 54.553 41.603 6.373 8.167 5.098 13.017-5.608 22.461-10.452 9.443-13.256 8.933-18.609-2.553-14.531-30.628-47.926-42.369-78.006-27.055-7.393 3.574-14.021 7.657-14.786 9.189-2.039 3.318-19.374-14.038-30.845-30.628-11.472-16.591-10.707-22.972 3.059-30.118 14.53-7.657 19.119-7.657 45.631.51m-197.564 2.297c3.569 2.553 6.628 6.381 6.628 8.934 0 5.36-10.707 21.695-25.238 38.03l-10.961 12.251-12.746-8.423c-11.727-7.912-14.276-8.678-31.865-8.678-15.041 0-21.414 1.276-29.061 5.615-10.197 5.871-21.414 19.909-24.218 31.139-2.294 9.189-8.667 8.423-19.884-2.808l-9.432-9.698 15.04-14.038c20.394-19.143 24.218-21.951 38.239-29.352 15.04-7.913 43.336-19.143 48.69-19.398 2.294 0 10.451-2.297 18.099-4.85 15.55-5.615 27.022-5.105 36.709 1.276m-136.638 8.934c2.804 4.849 2.04 6.891-8.922 19.142l-12.237 13.783-.764-8.933c-.51-6.636 1.02-11.996 5.608-19.143 7.393-11.23 11.471-12.251 16.315-4.849m431.837-.766c5.608 6.381 12.236 22.971 12.236 30.883 0 5.616-1.53 4.595-15.041-9.954-14.02-15.314-14.785-16.59-10.706-20.674 5.353-5.615 8.667-5.615 13.511-.255m-57.868 67.127c5.609 2.552 13.001 7.146 16.57 9.954l6.373 5.36h-8.922c-10.452 0-30.336-5.105-44.611-11.486-9.942-4.339-9.942-4.594-3.824-6.381 11.217-3.573 23.963-2.552 34.414 2.553m-289.335-1.276c0 4.594-46.141 18.632-53.534 16.079-1.529-.51 4.079-4.594 12.746-9.188 11.727-5.87 19.374-8.168 28.297-8.168 6.882 0 12.491.511 12.491 1.277m137.912 57.172c3.314 11.741 1.275 21.44-7.902 36.499l-4.334 7.147-8.412-16.846-8.413-16.846 4.844-8.933c2.549-5.104 6.628-12.506 8.667-16.59l3.569-7.402 4.334 5.871c2.549 3.318 5.863 10.975 7.647 17.1m235.547.766c-1.019 4.594-3.314 11.23-5.098 14.804-3.569 6.636-3.314 6.891-7.648-6.636-1.019-3.063 9.687-15.825 13.511-16.336.51 0 0 3.829-.765 8.168M48.8 493.459c-.765 4.594-1.784 8.678-2.294 9.188-1.02 1.021-4.589-8.423-7.138-18.377-1.784-7.146-1.53-7.146 4.589-3.063 5.353 3.574 6.118 5.616 4.843 12.252m151.168 8.167c.765 6.381 2.55 12.251 3.824 13.017s2.295 3.318 2.295 5.871c0 3.573-4.589 5.87-19.374 10.464-10.452 3.063-21.414 7.913-23.963 10.72-6.118 6.636-8.667 17.867-6.628 29.097 2.294 11.741.51 10.975-5.863-2.808-5.608-11.74-7.138-33.18-3.314-41.603 7.647-15.569 10.961-19.908 16.315-22.716 6.883-3.573 30.59-13.017 33.14-13.272 1.019-.255 2.549 4.849 3.568 11.23m184.563-7.402c4.589 2.297 13.511 5.616 20.139 7.147 10.707 2.808 12.236 4.339 18.61 17.101 8.412 16.335 9.177 30.628 2.294 46.197-4.844 11.486-21.159 31.649-16.825 21.185 5.608-14.293 6.883-28.587 3.059-37.265-3.824-9.443-7.903-11.996-30.336-19.142-10.451-3.318-14.785-5.871-14.785-8.933 0-2.553 1.02-5.105 2.294-6.126 1.53-.766 3.314-6.636 4.334-12.762.765-6.381 1.784-11.485 2.294-11.485.255 0 4.334 1.786 8.922 4.083m15.296 59.725c0 1.532-2.295.511-5.099-1.786-2.804-2.553-5.098-4.85-5.098-5.36 0-.255 2.294.51 5.098 2.042s5.099 3.828 5.099 5.104"/>
</svg>
