<svg xmlns="http://www.w3.org/2000/svg" width="87" height="88" fill="none">
  <path fill="#c24a1c" d="M22.83.17c0 .095.094.356.203.575.109.22.3.741.421 1.167.123.425.272.837.327.905.068.083.19.453.285.823.082.385.245.824.34.988s.286.7.408 1.194.272.906.326.906c.055 0 .163.329.259.727.081.384.244.892.353 1.098.109.205.3.768.422 1.234.136.467.271.878.326.92.04.04.204.466.34.96s.299.92.34.96c.054.042.19.467.326.961s.285.947.34 1.03c.054.068.217.534.353 1.028.15.494.3.92.354.96.054.042.204.467.326.961s.272.947.34 1.03c.054.068.204.507.34.96.122.452.272.85.326.891.068.042.218.522.354 1.057.122.549.272 1.002.326 1.002.04 0 .204.411.34.919.15.521.299.96.353 1.001.055.042.164.37.259.755.095.37.258.865.353 1.098.259.576.612 1.687.612 1.92 0 .11.054.206.109.206.068 0 .19.33.285.714.109.398.286.974.422 1.276s.312.81.394 1.125c.122.44.231.59.421.59.15 0 .272.055.272.11 0 .068.313.192.68.274.38.096.952.288 1.265.426.326.15.883.343 1.264.439.367.096.693.205.734.26.04.041.462.206.952.343.49.151 1.033.343 1.223.44.19.095.666.246 1.047.329.395.096.72.206.72.26s.286.179.64.261c.353.096.884.275 1.183.412.312.137.883.329 1.278.425.38.082.747.22.788.288.123.206.462.137.462-.082s-.272-.768-.435-.892c-.04-.041-.19-.33-.312-.659-.136-.315-.286-.576-.34-.576s-.204-.233-.327-.521a15 15 0 0 0-.625-1.194c-.231-.384-.544-.96-.693-1.303-.164-.33-.367-.686-.463-.769a2.5 2.5 0 0 1-.34-.63c-.108-.248-.23-.481-.271-.522-.055-.041-.354-.563-.68-1.167-.326-.603-.626-1.125-.68-1.166-.04-.041-.163-.288-.272-.549-.095-.26-.245-.549-.326-.617-.082-.082-.286-.412-.449-.755-.177-.343-.367-.713-.435-.823-.177-.288-1.36-2.442-1.618-2.95-.122-.233-.244-.439-.285-.48-.055-.041-.204-.33-.34-.659-.15-.315-.3-.576-.34-.576s-.19-.274-.326-.617c-.15-.343-.313-.618-.367-.618-.068 0-.19-.22-.272-.48s-.231-.563-.327-.659c-.176-.164-.53-.81-1.047-1.88-.163-.342-.34-.644-.38-.685-.054-.042-.204-.316-.34-.618-.15-.302-.3-.576-.34-.617s-.204-.316-.353-.618c-.15-.302-.313-.576-.354-.617s-.19-.316-.34-.618c-.136-.302-.285-.576-.34-.617-.054-.041-.19-.302-.299-.59-.122-.275-.285-.508-.353-.508-.082 0-.15-.055-.15-.123 0-.151-.34-.892-.788-1.688-.204-.343-.816-1.454-1.373-2.47-.558-1.001-1.047-1.852-1.102-1.893-.04-.041-.163-.275-.272-.522-.095-.26-.244-.535-.326-.63-.081-.083-.258-.371-.394-.632C27.26 1.24 26.296.43 25.657.183c-.625-.22-2.828-.233-2.828-.014M68.374.265c-.748.206-1.822.727-2.379 1.125-.557.412-2.638 2.484-12.073 12.006-9.72 9.81-10.713 10.84-10.632 11.155.055.192.136.384.19.425.055.041.368.563.694 1.167.313.603.612 1.125.666 1.166s.177.288.286.549c.109.26.285.63.421.823.422.631.789 1.303 1.02 1.811.122.288.313.521.421.521.096 0 4.677-4.527 10.156-10.057C68.537 9.458 67.79 10.09 70.006 10.09c1.06 0 1.36.041 1.55.247.136.124.312.233.407.233.381 0 1.564 1.126 6.758 6.367 3.358 3.389 5.478 5.433 5.642 5.433.244 0 1.142-.946 1.142-1.207 0-.082.081-.165.176-.206.082-.027.245-.302.354-.59.109-.302.245-.576.313-.617.299-.192.652-2.25.652-3.773 0-1.428-.367-3.54-.652-3.76-.055-.041-.177-.247-.272-.453-.082-.206-.408-.713-.694-1.111-.584-.796-7.369-7.711-8.579-8.74C75.894 1.13 74.697.499 73.61.21c-1.156-.301-4.065-.274-5.235.055"/>
  <path fill="#c24a1c" d="M64.812 17.004c-.585.604-1.06 1.14-1.06 1.194 0 .206 13.704 13.913 13.921 13.913.123 0 .218.055.218.137 0 .247.924.151 1.427-.15.272-.165.558-.454.626-.632.177-.466.15-1.51-.027-1.866-.096-.15-3.141-3.293-6.798-6.984-4.922-4.967-6.716-6.696-6.948-6.696-.204 0-.652.357-1.36 1.084M59.102 22.767c-.585.59-1.06 1.18-1.06 1.304 0 .343 13.486 13.913 13.935 14.022.693.179 1.55-.027 1.944-.439.313-.343.367-.507.367-1.22v-.824l-6.906-6.97c-3.794-3.828-6.975-6.957-7.07-6.957s-.639.494-1.21 1.084M.002 24.249c0 .672.081 1.413.163 1.66.245.672 1.06 1.62 1.618 1.907.285.137.517.288.517.33 0 .04.258.192.584.343.313.137.598.288.64.343.04.04.257.164.475.288.231.11.91.494 1.51.85.61.344 1.168.632 1.236.632.082 0 .245.123.381.274.136.15.326.274.408.274.095 0 .367.138.625.316.259.165.68.398.938.508.259.11.503.233.544.288s.558.356 1.156.672c.598.33 1.115.631 1.155.686.041.041.272.165.517.275.258.096.53.26.626.343.081.096.434.301.76.466.34.151.925.467 1.292.7.381.22.911.507 1.197.631.272.123.503.274.503.343 0 .055.272.206.612.343.34.123.611.275.611.316 0 .055.272.205.612.356s.612.316.612.357.272.192.612.343c.34.137.612.288.612.343s.163.165.38.247c.204.082.735.37 1.183.631.449.275 1.088.618 1.428.782.326.151.68.37.775.467.095.096.394.247.652.343.259.096.476.22.476.26 0 .056.258.206.585.357.312.137.598.288.639.33.04.054.557.356 1.155.686.599.329 1.115.63 1.156.672.04.041.34.22.68.398.34.164.924.48 1.291.7.816.48 1.55.837 1.713.837.068 0 .123.068.123.15 0 .07.23.234.516.357.272.11.53.247.571.302s.313.206.612.343c.3.151.571.302.612.343.04.055.326.206.639.357.326.15.584.316.584.37 0 .041.218.165.476.247.259.083.558.234.653.33s.449.315.775.48c1.074.535 1.7.892 1.862 1.056.096.096.395.247.653.33.258.082.476.205.476.26 0 .261 1.264.453 2.474.398 1.537-.068 2.108-.357 3.63-1.81a154 154 0 0 0 1.238-1.195c.326-.301 1.033-.535 1.672-.535.544 0 1.604.261 1.726.426.041.04.408.192.816.329s.816.288.884.343c.081.055.462.206.87.343.394.123.884.316 1.074.425.19.096.653.261 1.006.343.354.096.653.22.653.275s.34.206.748.315c.965.288 1.373.686 1.563 1.537.095.37.245.864.353 1.111.11.234.19.48.19.563 0 .137.939 1.976 1.075 2.086.04.04.34.411.666.823.313.411.87 1.015 1.224 1.33.353.316.843.769 1.1.989.246.233.626.493.844.59s.394.22.394.274.204.206.449.33c.23.123.462.274.503.329s.353.205.72.343c.354.137.64.288.64.343s.34.205.747.343c.408.15.748.301.748.356s.435.206.951.343c.53.138.952.288.952.343s.598.206 1.333.33c.72.123 1.427.288 1.563.37.34.165 4.745.178 5.071 0 .136-.082.857-.247 1.59-.37.721-.124 1.32-.275 1.32-.33s.299-.178.652-.274a3.9 3.9 0 0 0 1.156-.508c.272-.178.53-.329.57-.329.15 0 1.483-1.427 1.877-2.003.218-.316.476-.906.585-1.304.23-.878.244-2.977.04-3.992-.163-.796-.951-2.484-1.36-2.937-.135-.15-.257-.315-.257-.37 0-.096-.64-.85-1.292-1.523-.422-.425-1.468-1.358-1.713-1.523-.122-.069-.571-.384-1.02-.686-.924-.618-2.746-1.578-3.004-1.578-.095 0-.177-.055-.177-.137 0-.069-.258-.192-.571-.288a8 8 0 0 1-1.129-.398c-.299-.124-.965-.316-1.495-.426-.517-.096-.979-.22-1.02-.274-.122-.151-2.624-.398-4.12-.398-1.522 0-3.384.206-3.833.412-.15.068-.53.192-.843.274-.585.151-2.23.92-2.352 1.098-.15.22-.897.274-1.25.082-.205-.11-.721-.302-1.157-.425-.435-.124-.842-.275-.924-.343-.068-.055-.53-.22-1.02-.357s-.91-.288-.951-.33c-.041-.054-.367-.164-.735-.26a9 9 0 0 1-1.237-.425 9 9 0 0 0-1.237-.426c-.367-.096-.693-.206-.734-.26-.04-.042-.462-.206-.952-.343s-.91-.302-.951-.343c-.041-.055-.49-.206-1.02-.343-.517-.138-.979-.302-1.02-.357-.04-.055-.435-.206-.883-.33-.45-.137-.87-.288-.952-.343-.068-.068-.53-.219-1.02-.342s-.91-.275-.952-.33c-.04-.055-.462-.206-.951-.357-.49-.137-.938-.301-1.02-.356-.068-.055-.53-.206-1.02-.343-.489-.138-.91-.288-.951-.343s-.462-.206-.952-.343c-.49-.124-.91-.275-.952-.33-.04-.054-.448-.192-.91-.329-.463-.123-1.02-.315-1.224-.425s-.707-.275-1.088-.357c-.394-.096-.72-.206-.72-.26 0-.056-.408-.207-.898-.33s-1.02-.316-1.182-.412c-.164-.096-.599-.26-.98-.343-.366-.096-.733-.22-.815-.288-.068-.055-.408-.178-.748-.274a10 10 0 0 1-1.155-.412c-.3-.137-.87-.315-1.251-.425-.395-.096-.72-.22-.72-.288 0-.055-.096-.11-.205-.11-.23 0-1.332-.357-1.903-.617a8.5 8.5 0 0 0-1.088-.357c-.367-.096-.707-.206-.748-.26-.04-.042-.462-.207-.951-.344-.49-.137-.911-.302-.952-.343-.04-.055-.49-.206-1.02-.343-.516-.137-.979-.302-1.02-.357-.04-.055-.434-.206-.883-.329-.449-.137-.87-.288-.952-.343-.068-.069-.53-.22-1.02-.343-.489-.124-.91-.274-.951-.33-.04-.054-.462-.205-.952-.356-.49-.137-.938-.302-1.02-.357-.067-.055-.53-.206-1.02-.343-.488-.137-.91-.288-.95-.343-.041-.055-.463-.206-.952-.343-.49-.123-.911-.274-.952-.33-.04-.054-.449-.191-.911-.329-.462-.123-1.02-.315-1.224-.425s-.707-.274-1.087-.357c-.395-.096-.72-.205-.72-.26s-.409-.206-.898-.33c-.49-.123-1.02-.315-1.183-.411s-.598-.26-.979-.343c-.367-.096-.734-.22-.816-.288-.068-.055-.475-.206-.897-.33a9 9 0 0 1-1.156-.425c-.693-.357-.734-.316-.72.988m41.929 18.44c.639.563.666 1.235.081 1.88-.326.343-.516.44-.924.44-1.305-.014-1.836-1.537-.83-2.388.571-.48 1.075-.453 1.673.069m30.97 3.705c.544.083 1.047.206 1.115.26.082.056.408.18.748.275.897.247 3.616 1.51 3.807 1.784.04.041.163.123.272.178.815.37 2.433 1.907 3.086 2.937.136.205.313.452.394.548.095.096.245.48.34.865.095.37.218.686.285.686.055 0 .11.398.11.892 0 .507-.055.892-.137.892-.068 0-.136.068-.136.15 0 .302-.462 1.112-.856 1.51-.53.549-1.754 1.166-2.678 1.386-.408.082-.789.22-.843.301-.11.165-3.998.151-4.229-.013-.081-.083-.625-.22-1.182-.316-.558-.096-1.265-.274-1.564-.411-.299-.138-.789-.316-1.088-.412s-.57-.22-.611-.274-.34-.234-.68-.385c-.802-.384-1.441-.782-1.795-1.125-.163-.15-.34-.274-.38-.274-.164 0-1.686-1.592-2.108-2.21a7 7 0 0 1-.612-1.083c-.108-.26-.258-.522-.326-.577-.081-.054-.15-.63-.15-1.317 0-.974.041-1.262.245-1.454.123-.137.231-.316.231-.412 0-.15.735-.892 1.469-1.482.109-.082.476-.233.816-.329.353-.11.76-.247.91-.33.748-.383 3.834-.52 5.547-.26"/>
  <path fill="#c24a1c" d="M53.188 28.736c-.626.63-1.129 1.18-1.129 1.207 0 .192 10.945 11.086 11.135 11.086.34 0 2.243-.453 2.325-.562.04-.041.353-.124.72-.179.354-.054.64-.178.64-.26 0-.247-12.142-12.445-12.373-12.445-.108 0-.707.521-1.319 1.152M13.258 54.435C3.808 63.97 1.755 66.07 1.375 66.619c-.054.068-.286.48-.517.891-.68 1.235-.802 1.894-.802 4.323 0 2.785.204 3.457 1.577 5.364.558.755 7.342 7.684 8.552 8.713.91.782 2.107 1.413 3.195 1.701 1.115.289 3.915.275 5.085-.013.747-.192 1.985-.769 2.528-1.18.72-.55 1.156-1.002 1.156-1.249 0-.178-1.795-2.085-5.384-5.708-5.193-5.241-6.308-6.435-6.308-6.819 0-.096-.109-.274-.231-.411-.204-.206-.245-.494-.245-1.674 0-1.03.054-1.469.177-1.496a.32.32 0 0 0 .163-.274c0-.11.109-.398.245-.618.122-.233 4.717-4.953 10.196-10.482 5.466-5.53 9.952-10.14 9.952-10.25s-.19-.274-.421-.37a2.7 2.7 0 0 1-.585-.343c-.081-.096-.435-.302-.761-.467-.34-.15-.911-.466-1.292-.7-.367-.22-.897-.494-1.155-.63-.259-.124-.503-.261-.544-.316s-.313-.206-.612-.343c-.3-.151-.571-.302-.612-.37-.04-.056-.231-.138-.421-.193-.313-.082-1.333.92-11.053 10.73"/>
  <path fill="#c24a1c" d="M28.444 53.707c-.625.618-1.129 1.222-1.129 1.331 0 .234 12.1 12.472 12.332 12.472.081 0 .204-.288.258-.658.054-.357.136-.672.177-.714.108-.082.557-2.003.557-2.346 0-.206-10.808-11.237-10.999-11.237-.04.014-.584.521-1.196 1.152M45.996 52.83c-.517.247-2.488.576-2.828.48-.082-.028-.557-.083-1.074-.124l-.925-.096.096.384c.054.206.136.412.19.453s.163.37.258.755c.095.37.259.864.354 1.097.258.577.611 1.688.611 1.921 0 .11.055.206.11.206.067 0 .19.33.285.714.109.398.285.974.421 1.276.136.301.313.823.408 1.166s.231.7.3.796c.217.26.176 1.22-.069 1.454-.285.302-.856 1.523-1.033 2.278-.095.343-.218.74-.285.892-.218.466-.408 2.346-.408 3.951 0 1.564.23 3.952.394 4.075.04.041.19.618.326 1.304.136.672.3 1.262.354 1.303.04.041.204.425.326.85.136.44.3.797.38.797.069 0 .123.11.123.233.014.137.136.466.272.727.15.26.394.741.544 1.057.163.329.34.59.394.59.068 0 .15.137.204.315.04.165.177.426.313.576.136.151.421.522.652.824.965 1.303 3.725 3.773 4.228 3.773.096 0 .259.096.367.206.381.384 2.122.754 3.495.754 1.509 0 2.528-.247 3.317-.782.557-.384 1.985-1.742 1.985-1.893 0-.041.15-.302.326-.59a4.8 4.8 0 0 0 .503-1.166c.095-.357.218-.645.272-.645s.204-.604.326-1.345c.123-.727.286-1.44.367-1.591.177-.33.177-4.775 0-5.105-.081-.15-.244-.864-.367-1.605-.122-.727-.272-1.33-.326-1.33s-.204-.44-.34-.961c-.136-.535-.285-.96-.34-.96-.054 0-.204-.344-.353-.755-.136-.412-.3-.755-.354-.755s-.204-.316-.34-.686c-.136-.384-.285-.686-.34-.686-.054 0-.163-.192-.258-.412-.095-.233-.244-.466-.326-.521s-.245-.288-.38-.508c-.395-.727-2.04-2.51-2.95-3.224a23 23 0 0 1-.613-.494c-.217-.206-1.985-1.153-2.148-1.153-.081 0-.326-.082-.557-.192-.245-.11-.734-.26-1.102-.356-.842-.193-1.237-.604-1.522-1.578-.109-.412-.258-.755-.313-.755s-.177-.302-.272-.659a6 6 0 0 0-.34-1.015c-.109-.192-.299-.686-.421-1.084-.136-.412-.286-.81-.34-.878-.054-.082-.204-.467-.326-.864-.272-.81-.395-.851-1.251-.44m5.41 11.621c.096.069.395.22.654.316.258.11.747.384 1.073.617.612.425 2.19 1.962 2.19 2.127 0 .04.122.22.271.384.34.357.734 1.002 1.115 1.811.15.343.326.645.38.686.055.041.178.316.273.618.095.301.285.795.408 1.097.136.302.326.947.421 1.44.095.495.231.934.3.975.176.123.176 3.87 0 4.267-.082.178-.245.782-.382 1.345-.135.562-.271 1.056-.326 1.097-.04.042-.204.316-.353.604-.15.302-.435.714-.64.906-.353.37-1.169.823-1.454.823-.082 0-.15.055-.15.137s-.38.137-.883.137c-.49 0-.884-.054-.884-.11 0-.054-.272-.178-.598-.274-.857-.22-2.026-1.043-2.923-2.017-.272-.288-.612-.672-.762-.823a4.4 4.4 0 0 1-.53-.768 4 4 0 0 0-.353-.535c-.3-.206-1.55-2.992-1.781-3.925-.096-.37-.218-.7-.272-.74-.163-.124-.395-1.99-.395-3.293 0-1.276.218-3.115.408-3.362.055-.082.204-.467.327-.865.258-.823.244-.795 1.047-1.715.312-.356.638-.645.747-.645.095 0 .259-.082.354-.192.109-.11.313-.22.462-.26.394-.124 2.067-.014 2.257.137M22.53 59.676c-.585.59-1.06 1.139-1.06 1.221s3.099 3.293 6.906 7.121l6.893 6.97h.816c.706 0 .87-.055 1.21-.384.326-.302.407-.521.462-1.139.054-.645.013-.837-.259-1.193-.53-.741-13.46-13.611-13.69-13.653-.136-.013-.68.426-1.278 1.057M16.82 65.439c-.666.672-1.06 1.166-1.06 1.358 0 .206 1.97 2.278 6.634 6.998 3.644 3.69 6.757 6.778 6.92 6.86.354.192 1.387.22 1.85.041.176-.069.461-.357.624-.631.3-.508.395-1.44.15-1.44-.068 0-.136-.097-.136-.22 0-.234-13.596-14.05-13.813-14.05-.068.013-.598.494-1.17 1.084"/>
</svg>
