<svg xmlns="http://www.w3.org/2000/svg" width="83" height="101" fill="none">
  <path fill="#c24a1c" d="M33.117 2.594v2.593h39.194V0H33.117zM45.588 12.163v3.756h4.632V8.406h-4.632zM38.64 22.358v3.22h18.528v-6.44H38.64zM71.242 24.147a40 40 0 0 0-1.247 1.43c-.463.555-1.23 1.485-1.675 2.004-.142.16-.41.518-.587.805a14 14 0 0 1-.588.805c-.749.858-2.316 3.112-2.316 3.344 0 .108-.072.197-.16.197-.09 0-.286.215-.428.483a70 70 0 0 1-1.07 1.932c-.444.787-.854 1.645-.925 1.914-.072.286-.197.5-.268.5-.25 0-.712 2.433-.712 3.739 0 1.377.445 3.828.712 3.917a.27.27 0 0 1 .178.25c0 .322.588 1.485.838 1.628.124.072.231.233.231.322 0 .25 2.227 2.486 2.477 2.486.089 0 .249.108.32.233.143.25 1.3.84 1.621.84.107 0 .214.072.25.18.089.285 2.583.715 4.24.715 1.781 0 3.99-.412 4.382-.805.16-.143.375-.269.5-.269.694 0 3.491-2.432 4.15-3.613.178-.322.428-.697.552-.822.107-.126.214-.322.214-.412s.16-.5.357-.93c.445-.966.712-2.379.712-3.81 0-1.162-.303-2.95-.534-3.112-.072-.054-.267-.519-.428-1.037-.178-.501-.374-.93-.427-.93-.072 0-.268-.358-.446-.805-.196-.447-.41-.805-.499-.805s-.16-.108-.16-.233c0-.143-.232-.59-.534-.983-.285-.412-.535-.805-.535-.877 0-.09-.196-.375-.445-.662-.25-.286-.446-.572-.446-.626 0-.053-.249-.393-.534-.733s-.534-.68-.534-.733c0-.054-.179-.322-.392-.573-.232-.25-.57-.68-.766-.948-.339-.447-.98-1.234-2.37-2.915-.677-.841-1.764-1.986-1.853-1.986-.035 0-.41.412-.855.895"/>
  <path fill="#c24a1c" d="M36.057 28.797c-.054.09-.303.18-.553.18-.605 0-2.743.554-2.743.715 0 .071-.32.232-.713.357-.41.143-.784.322-.855.43s-.356.322-.623.483c-.57.322-2.976 2.629-2.976 2.844 0 .089-.106.268-.231.393-.463.483-1.336 2.236-1.55 3.184-.143.536-.338 1.09-.428 1.234-.142.16-.213 3.846-.249 11.233l-.053 10.964h1.264c.677 0 1.39.072 1.568.161.16.09.962.304 1.782.483.801.16 1.46.358 1.46.43 0 .07.375.268.856.446.463.18.908.43.98.573.07.125.231.232.356.232.356 0 3.17 2.594 3.527 3.256.143.25.41.322 1.354.322 1.265 0 3.474.322 3.617.536.053.072.516.269 1.033.43.499.178.926.375.926.447 0 .053.285.268.642.465 1.852 1.001 4.044 4.06 4.614 6.439.303 1.234.338 4.293.071 5.437-.214.93-1.176 3.095-1.443 3.256-.125.071.09.68.535 1.61.855 1.77 1.104 3.004 1.104 5.365 0 2.022-.339 3.81-.962 5.08-.25.483-.463 1.002-.463 1.11 0 .124-.072.232-.143.232-.089 0-.285.286-.445.626s-.356.626-.446.626c-.07 0-.284.268-.48.59-.179.304-.482.68-.66.805s-.32.358-.32.501c0 .214 1.639.25 11.758.25 7.714 0 11.758-.054 11.758-.179 0-.107.107-.179.231-.179.41 0 1.176-.876 1.354-1.556.125-.465.196-7.78.196-22.072v-21.41l-.392-.107a4.7 4.7 0 0 0-.89-.108c-.285 0-.5-.053-.5-.143 0-.071-.409-.232-.908-.34-3.884-.93-8.248-5.294-9.282-9.265-.124-.5-.302-.948-.41-1.02-.267-.178-.23-5.49.018-5.651.125-.072.357-.626.517-1.252.178-.608.392-1.11.463-1.11.09 0 .16-.107.16-.232 0-.232 1.39-3.023 1.586-3.166.054-.053.267-.393.463-.769.196-.358.392-.662.464-.662.196 0 .748-1.413.641-1.681-.071-.161-.588-.34-1.443-.483-.748-.125-1.354-.304-1.354-.375 0-.215-23.64-.18-23.783.035M66.52 58.936c.374.358.445.608.445 1.52s-.071 1.163-.445 1.52c-.838.86-2.227.448-2.512-.715-.214-.823.035-2.11.463-2.45.57-.465 1.532-.412 2.049.125m-.446 6.457c.927.626.891.125.891 11.805 0 6.207-.071 11.143-.16 11.394-.374.966-2.174 1.055-2.637.125-.178-.34-.231-3.005-.231-11.43V66.324l.605-.608c.677-.68.909-.733 1.532-.322"/>
  <path fill="#c24a1c" d="M23.14 64.248c-.445.108-.837.233-.89.304-.054.072-.428.233-.837.358-.428.143-.909.358-1.07.483-.177.143-.748.555-1.264.948-.535.376-1.265 1.127-1.657 1.663a29 29 0 0 1-.873 1.163c-.09.107-.303.555-.463.984-.178.43-.392.876-.499 1.02-.125.16-.196 1.555-.214 3.934 0 2.04-.071 3.792-.142 3.917-.517.841-2.263.555-2.601-.393-.125-.304-.25-1.896-.303-3.541l-.107-2.97-1.176-.125c-1.496-.143-3.367.161-4.632.751-1.122.52-1.23.59-2.316 1.682-1.087 1.109-1.158 1.198-1.674 2.343-.998 2.11-1.016 5.634-.072 7.351.891 1.61.82 1.95-.694 3.452-.535.519-.963 1.055-.963 1.216s-.07.287-.16.287c-.463 0-.73 3.38-.356 4.632.231.805 1.372 2.522 1.835 2.773.196.107.48.322.659.483.16.178.57.357.89.429.34.072.66.215.731.322.16.25 3.064.25 3.385 0 .125-.107.517-.286.873-.394.374-.125.82-.357 1.015-.518.196-.161.517-.43.713-.59.196-.18.428-.412.499-.555.214-.322 1.069-.859 1.39-.859.124 0 .962.716 1.835 1.574.872.859 1.834 1.682 2.155 1.807s.57.304.57.376c0 .071.535.268 1.212.447.659.16 1.336.375 1.496.465.392.197 3.296.214 3.42 0 .054-.072.41-.197.767-.269 1.033-.16 2.94-1.198 3.687-1.985 1.051-1.127 1.176-1.27 1.176-1.395 0-.072.196-.537.428-1.073.25-.519.534-1.342.641-1.825.107-.5.285-1.055.356-1.252.09-.197.214-.626.268-.93.16-.787 1.069-1.556 1.674-1.395.624.161 1.265.912 1.265 1.467 0 .733-.374 2.736-.517 2.736-.07 0-.267.555-.445 1.252-.178.68-.392 1.252-.463 1.252s-.267.358-.428.787c-.16.448-.427.895-.57 1.002-.124.125-.25.322-.25.465 0 .34 1.907 1.449 2.94 1.699.5.108.962.287 1.07.358.195.197 4.186.215 4.186.018 0-.072.48-.25 1.069-.358.57-.125 1.158-.34 1.3-.465.125-.125.392-.286.57-.358.196-.053.642-.34.98-.643.339-.287.66-.537.713-.537.125 0 1.603-1.896 1.603-2.057 0-.072.107-.215.232-.34.124-.143.338-.59.48-1.02.143-.429.34-.84.446-.912.25-.178.25-5.544-.018-5.884-.107-.143-.338-.662-.516-1.145-.178-.5-.374-.93-.446-.984-.285-.197-.766-1.36-.748-1.824.018-.412.446-1.324.766-1.574.196-.161.695-1.234.695-1.503a.35.35 0 0 1 .232-.322c.302-.107.302-4.56 0-5.169a9 9 0 0 1-.464-1.073c-.41-1.002-1.657-2.397-2.654-2.97-.32-.178-.624-.375-.677-.446-.178-.215-1.621-.68-2.138-.68-.285 0-.534-.107-.588-.233-.053-.143-.142-.16-.267-.035-.214.197.142 2.003.517 2.665.124.197.249 1.216.303 2.271l.088 1.914-.498.465c-.82.751-2.12.501-2.316-.447-.072-.286-.196-.554-.285-.608-.09-.072-.16-.5-.16-.984 0-1.001-.446-3.523-.678-3.828-.089-.107-.302-.572-.48-1.055-.179-.465-.375-.84-.446-.84s-.196-.197-.25-.43c-.124-.536-2.066-2.54-3.17-3.273-.446-.304-1.123-.662-1.515-.787-.374-.143-.712-.304-.766-.358-.338-.465-4.792-.662-6.413-.304"/>
</svg>
