<svg xmlns="http://www.w3.org/2000/svg" width="46" height="111" fill="none">
  <path fill="#c24a1c" d="M14.04.18c-.215.089-.483.376-.572.627-.107.269-.179 2.726-.179 5.756v5.272h4.108V6.653c0-5.541-.09-6.205-.84-6.492-.535-.197-1.982-.197-2.518.018M21.309.52l-.518.52v10.795h4.286V1.04L24.56.52C24.095.054 23.916 0 22.934 0c-.983 0-1.161.054-1.626.52M29.257.161c-.697.305-.786 1.058-.786 6.492v5.182h4.126l-.054-5.559c-.054-6.455.036-6.133-1.786-6.222-.625-.036-1.304.018-1.5.107"/>
  <path fill="#c24a1c" d="M3.859 4.034c-.625.287-1.43 1.112-1.768 1.865-.161.341-.215 2.457-.233 7.675v7.227h.858c.464 0 .928-.072 1.036-.161.178-.162 3.393-.485 6.59-.664 1.09-.072 2.072-.215 2.215-.323.357-.287 20.397-.287 20.754 0 .143.108 1.143.251 2.215.323 3.197.18 6.412.502 6.59.664.108.09.572.161 1.036.161h.858v-7.173c0-7.89 0-7.872-1.09-8.912-.75-.7-1.375-.95-2.411-.95h-.786v3.46c0 2.708-.071 3.659-.286 4.304-.16.466-.34.843-.41.843-.054 0-.25.269-.43.574-.374.7-1.892 1.668-3 1.919-1.071.25-24.255.25-25.326 0-1.108-.252-2.626-1.22-3-1.92-.18-.304-.376-.573-.43-.573-.07 0-.25-.377-.41-.843-.215-.645-.286-1.596-.286-4.304v-3.46h-.84c-.482.017-1.125.125-1.446.268M13.736 22.99c-1.769.07-3.376.214-3.573.304-.196.09-1.035.215-1.875.269-2.965.215-5.715.538-5.715.681 0 .072-.268.144-.608.144h-.607l-.196 1.38c-.108.772-.25 2.08-.304 2.924-.071.842-.179 1.596-.25 1.703-.286.377-.59 8.912-.607 16.767-.018 8.033.303 15.96.625 15.96.09 0 .16.304.16.663 0 1.147.536 6.222.715 6.599.071.197.286 1.398.447 2.69.16 1.273.357 2.492.446 2.69s.286 1.237.447 2.33c.16 1.077.357 2.045.446 2.153.072.09.268.986.447 1.972.178.986.375 1.83.446 1.883.072.054.268.807.429 1.703.178.88.375 1.686.464 1.794.072.09.268.825.447 1.614.16.789.375 1.506.446 1.614.072.09.268.788.447 1.524.178.735.375 1.38.446 1.434.054.054.268.646.447 1.345.178.682.375 1.291.428 1.345.054.054.215.413.358.79.321.914 1.232 1.864 1.946 2.007.322.072.572.18.572.27s5.394.16 12.324.16 12.324-.07 12.324-.16.25-.198.571-.27c.715-.143 1.626-1.093 1.947-2.008.143-.376.304-.735.357-.789.054-.054.25-.663.429-1.345.178-.7.393-1.29.446-1.345.072-.053.268-.7.447-1.434.178-.736.375-1.435.447-1.525.07-.107.285-.824.446-1.613.179-.79.375-1.525.447-1.614.089-.108.285-.915.464-1.794.16-.896.357-1.65.428-1.703s.268-.897.447-1.883.375-1.883.447-1.972c.089-.108.285-1.076.446-2.152.16-1.094.357-2.134.447-2.332.089-.197.285-1.416.446-2.69.16-1.29.357-2.456.429-2.6.09-.143.286-1.81.464-3.676.16-1.882.375-3.568.465-3.765.339-.843.607-7.711.589-15.691 0-7.98-.322-16.57-.607-16.946-.072-.107-.179-.86-.25-1.703a48 48 0 0 0-.304-2.924l-.197-1.38h-.607c-.34 0-.607-.072-.607-.144 0-.143-2.75-.466-5.715-.681-.84-.054-1.68-.162-1.876-.251-1.036-.466-14.967-.664-21.968-.323m15.002 6.24c.393.125.75.268.804.34s.357.233.697.377c.857.358 2.465 2.062 3.09 3.317.535 1.076.535 1.094.714 5.56.197 4.644-.036 13.215-.375 13.86-.09.162-.304 1.507-.464 2.995-.179 1.47-.358 2.762-.429 2.87-.071.09-.286 1.022-.464 2.062s-.393 1.919-.447 1.972c-.071.054-.268.771-.428 1.614-.18.843-.393 1.596-.465 1.704-.053.09-.268.735-.446 1.434-.179.682-.375 1.291-.43 1.345-.053.054-.213.413-.338.807-.447 1.291-1.822 2.995-2.947 3.623-.322.179-.608.376-.661.448-.197.25-2.233.681-3.215.681-.983 0-3.019-.43-3.215-.681-.054-.072-.34-.27-.66-.449-1.126-.627-2.501-2.33-2.948-3.622-.125-.394-.286-.753-.34-.807-.053-.054-.25-.663-.428-1.345-.179-.699-.375-1.345-.447-1.434-.07-.108-.267-.825-.446-1.614-.16-.79-.375-1.524-.446-1.614-.072-.108-.286-1.022-.447-2.062-.179-1.04-.375-1.973-.447-2.062-.071-.108-.285-1.4-.446-2.87-.16-1.488-.375-2.833-.464-2.994-.34-.664-.572-9.253-.375-13.862.178-4.411.178-4.5.678-5.505 1.09-2.17 3.447-3.98 5.573-4.286 1.572-.215 9.823-.072 10.662.198m.965 51.841c.768.7.804 1.489.107 2.242l-.482.52H16.54l-.482-.52c-.697-.753-.661-1.542.125-2.242l.589-.538h12.324zm-1.857 7.604c.142.197.339.448.446.574.357.43.179 1.111-.447 1.757l-.642.627h-8.538l-.643-.627c-.428-.448-.625-.807-.625-1.166 0-.305.072-.538.16-.538.09 0 .215-.143.287-.34.196-.646.75-.718 5.322-.682 4.215.036 4.447.054 4.68.395"/>
  <path fill="#c24a1c" d="M20.88 32.278c-.054.09-.75.179-1.518.179s-1.626.09-1.911.197c-.608.215-1.483 1.04-1.483 1.363 0 .126-.071.233-.16.233-.376 0-.537 1.363-.644 5.38-.089 2.708-.053 4.698.072 5.577.25 1.775 1.09 3.479 2.232 4.447.179.161.465.412.625.574.161.161.554.394.876.538.303.143.571.305.571.358 0 .162 1.268.467 2.519.61 1.893.233 4.68-.52 5.75-1.542.144-.144.412-.377.59-.538.572-.502 1.036-1.112 1.554-2.134.768-1.47.929-3.318.732-8.59-.16-3.783-.214-4.393-.482-4.59-.16-.126-.304-.287-.304-.395 0-.269-.928-1.093-1.482-1.29-.286-.108-1.143-.198-1.911-.198s-1.465-.09-1.518-.18c-.072-.107-.947-.179-2.054-.179-1.108 0-1.983.072-2.054.18M15.736 52.846c-.179.161-.16.896.035 1.273.09.161.304 1.399.465 2.726.16 1.327.357 2.492.446 2.6.072.09.268.95.43 1.883.178.932.374 1.775.446 1.883.089.09.285.807.446 1.56.179.77.375 1.398.447 1.398.089 0 .25.485.375 1.076.125.574.482 1.453.786 1.92.535.824.714.967 2.054 1.577.66.287 1.982.359 2.268.108.09-.09.464-.251.822-.359.375-.125.875-.484 1.125-.789a45 45 0 0 1 .607-.771c.09-.108.286-.663.447-1.255.178-.574.41-1.31.553-1.596.125-.305.322-1.022.447-1.614s.285-1.166.357-1.255c.09-.108.286-.95.464-1.883.161-.933.357-1.794.429-1.883.09-.108.286-1.273.446-2.6s.375-2.565.465-2.726c.214-.412.214-1.166-.018-1.31-.09-.053-.554.162-1.018.503-.464.323-1.25.753-1.75.933-.483.179-.983.394-1.09.484-.125.09-.91.25-1.75.358-1.572.215-4.144.018-4.876-.376-.179-.09-.768-.377-1.322-.628a19 19 0 0 1-1.661-.914c-.732-.502-.714-.502-.875-.323M19.058 105.118c.071 1.202.196 2.224.286 2.278.071.053.196.556.267 1.094.072.537.215 1.327.322 1.739l.179.771h5.644l.178-.771c.107-.412.25-1.202.322-1.739.071-.538.196-1.041.268-1.094.089-.054.214-1.076.285-2.278l.107-2.187h-7.965z"/>
</svg>
